<svg width="24" height="24" viewBox="0 0 24 24" fill="none" xmlns="http://www.w3.org/2000/svg">
<path d="M21 4H18C17.4478 4 17 4.44775 17 5V7H7V5C7 4.44775 6.55225 4 6 4H3C2.44775 4 2 4.44775 2 5V11C2 11.5522 2.44775 12 3 12H6C6.55225 12 7 11.5522 7 11V9H8V19C8 19.5522 8.44775 20 9 20C9.55225 20 10 19.5522 10 19V16H14V19C14 19.5522 14.4478 20 15 20C15.5522 20 16 19.5522 16 19V9H17V11C17 11.5522 17.4478 12 18 12H21C21.5522 12 22 11.5522 22 11V5C22 4.44775 21.5522 4 21 4ZM5 10H4V6H5V10ZM14 14H10V9H14V14ZM20 10H19V6H20V10Z" fill="#20314D"/>
</svg>
