<svg width="24" height="24" viewBox="0 0 24 24" fill="none" xmlns="http://www.w3.org/2000/svg">
<path d="M8 15C8 16.3845 8.41054 17.7378 9.17971 18.889C9.94888 20.0401 11.0421 20.9373 12.3212 21.4672C13.6003 21.997 15.0078 22.1356 16.3656 21.8655C17.7235 21.5954 18.9708 20.9287 19.9497 19.9497C20.9287 18.9708 21.5954 17.7235 21.8655 16.3656C22.1356 15.0078 21.997 13.6003 21.4672 12.3212C20.9373 11.0421 20.0401 9.94888 18.889 9.17971C17.7378 8.41054 16.3845 8 15 8C13.1435 8 11.363 8.7375 10.0503 10.0503C8.7375 11.363 8 13.1435 8 15ZM10.45 17C11.3373 17.0898 12.1845 17.4154 12.9037 17.9429C13.6228 18.4704 14.1878 19.1806 14.54 20C13.6527 19.9102 12.8055 19.5846 12.0863 19.0571C11.3672 18.5296 10.8022 17.8194 10.45 17V17ZM19.86 13.82C18.9586 13.606 18.1344 13.1458 17.4793 12.4907C16.8242 11.8356 16.364 11.0114 16.15 10.11C17.0565 10.3271 17.8842 10.7933 18.5398 11.4559C19.1953 12.1186 19.6526 12.9513 19.86 13.86V13.82ZM14.1 10.06C14.3324 11.5172 15.0194 12.8637 16.0629 13.9071C17.1063 14.9506 18.4528 15.6376 19.91 15.87C19.7458 16.7416 19.3527 17.5538 18.771 18.2233C18.1893 18.8928 17.4401 19.3956 16.6 19.68C16.1197 18.3127 15.2268 17.1281 14.0446 16.2899C12.8625 15.4516 11.4492 15.0009 10 15C10.0015 13.8329 10.4113 12.7031 11.1582 11.8063C11.9052 10.9096 12.9424 10.3024 14.09 10.09L14.1 10.06Z" fill="#20314D"/>
<path d="M2.7051 1.29271L1.29089 2.70693L8.29125 9.70728L9.70546 8.29307L2.7051 1.29271Z" fill="#20314D"/>
<path d="M8.70549 1.28914L7.29128 2.70335L11.2935 6.70558L12.7077 5.29136L8.70549 1.28914Z" fill="#20314D"/>
<path d="M2.70549 7.29442L1.29128 8.70864L5.2935 12.7109L6.70771 11.2966L2.70549 7.29442Z" fill="#20314D"/>
</svg>
