<svg width="24" height="24" viewBox="0 0 24 24" fill="none" xmlns="http://www.w3.org/2000/svg">
<path d="M18 10.5C17.4169 10.5 16.8664 10.632 16.3663 10.8574L15.2375 9.44647L16.5352 7.5H18C18.5522 7.5 19 7.05225 19 6.5C19 5.94775 18.5522 5.5 18 5.5H15C14.4478 5.5 14 5.94775 14 6.5C14 6.78625 14.1234 7.04059 14.3163 7.22284L13.4648 8.5H9C8.64893 8.5 8.32324 8.68408 8.14258 8.98535L7.12506 10.6809C6.76581 10.5746 6.39325 10.5 6 10.5C3.79443 10.5 2 12.2944 2 14.5C2 16.7056 3.79443 18.5 6 18.5C7.85828 18.5 9.41071 17.2203 9.85797 15.5H12C12.4087 15.5 12.7764 15.251 12.9287 14.8716L14.2913 11.4646L14.8098 12.1128C14.3082 12.7811 14 13.602 14 14.5C14 16.7056 15.7944 18.5 18 18.5C20.2056 18.5 22 16.7056 22 14.5C22 12.2944 20.2056 10.5 18 10.5ZM6 16.5C4.89697 16.5 4 15.603 4 14.5C4 13.397 4.89697 12.5 6 12.5C7.10303 12.5 8 13.397 8 14.5C8 15.603 7.10303 16.5 6 16.5ZM11.3228 13.5H9.85797C9.67889 12.8113 9.33221 12.1901 8.84747 11.6976L9.56592 10.5H12.5227L11.3228 13.5ZM18 16.5C16.897 16.5 16 15.603 16 14.5C16 13.397 16.897 12.5 18 12.5C19.103 12.5 20 13.397 20 14.5C20 15.603 19.103 16.5 18 16.5Z" fill="#20314D"/>
<path d="M8 7.5H10C10.5522 7.5 11 7.05225 11 6.5C11 5.94775 10.5522 5.5 10 5.5H8C7.44775 5.5 7 5.94775 7 6.5C7 7.05225 7.44775 7.5 8 7.5Z" fill="#20314D"/>
</svg>
