<svg width="24" height="24" viewBox="0 0 24 24" fill="none" xmlns="http://www.w3.org/2000/svg">
<path fill-rule="evenodd" clip-rule="evenodd" d="M17.3949 12.3628C17.5964 12.7786 17.7743 13.2547 17.9415 13.7955C18.3197 15.019 18.3817 15.203 18.6116 15.7002C18.7906 16.0872 18.9957 16.4364 19.2404 16.7586C19.7208 16.1686 20 15.5622 20 15H22C22 18.4747 16.8175 22 12 22C7.18255 22 2 18.4747 2 15H4C4 15.4441 4.1742 15.9157 4.48419 16.3852L5.92033 12.0767L5.55279 11.3416L3.80255 12.2168L1.78324 10.1975L4 5.76393V3.7802L5.19612 4.01942C8.94131 4.76846 11 6.41541 11 9C11 9.44772 11.5523 10 12 10H13C14.3967 10 15.3827 10.2361 16.1222 10.7617C18.2493 9.6251 20.4435 9.76051 22.5547 11.168L21.4453 12.8321C20.0639 11.9111 18.7525 11.7547 17.3949 12.3628ZM6.06348 17.9719C6.26698 18.1218 6.48189 18.267 6.7065 18.4063C8.06782 15.9556 9.23042 15 11.5 15C14.0216 15 16.1748 16.5483 16.81 18.6885C17.1426 18.5059 17.4585 18.3097 17.7529 18.1037C17.3711 17.6253 17.059 17.1077 16.7964 16.5398C16.5128 15.9268 16.4407 15.7126 16.0307 14.3862C15.4272 12.4339 14.9866 12 13 12H12C10.4477 12 9 10.5523 9 9C9 7.79235 8.07209 6.87276 5.98509 6.26589L4.23607 9.76393L6.44722 8.65836L8.07967 11.9233L6.06348 17.9719ZM8.49811 19.2991C9.60891 19.7326 10.8196 20 12 20C12.9877 20 13.9966 19.8128 14.9505 19.4977C14.6721 18.0988 13.2524 17 11.5 17C10.1985 17 9.48025 17.5526 8.49811 19.2991Z" fill="#20314D"/>
</svg>
