<svg width="24" height="24" viewBox="0 0 24 24" fill="none" xmlns="http://www.w3.org/2000/svg">
<path d="M18.9975 4.305H17.6025V2.205C17.6067 2.09709 17.5859 1.98966 17.5415 1.89118C17.4972 1.79271 17.4306 1.70588 17.347 1.63753C17.2633 1.56918 17.165 1.52118 17.0597 1.49732C16.9543 1.47345 16.8449 1.47437 16.74 1.5L4.845 4.3275H4.7925L4.665 4.3875L4.5525 4.5C4.48693 4.56101 4.43126 4.63186 4.3875 4.71C4.34823 4.79278 4.32288 4.88147 4.3125 4.9725C4.3125 4.9725 4.3125 4.9725 4.3125 5.0325V21.795C4.3125 21.98 4.38599 22.1574 4.51679 22.2882C4.6476 22.419 4.82501 22.4925 5.01 22.4925H18.9975C19.1825 22.4925 19.3599 22.419 19.4907 22.2882C19.6215 22.1574 19.695 21.98 19.695 21.795V5.0025C19.695 4.81751 19.6215 4.6401 19.4907 4.50929C19.3599 4.37849 19.1825 4.305 18.9975 4.305V4.305ZM16.2 4.305H11.0325L16.2 3.09V4.305ZM18.2925 21.09H5.7075V5.7075H18.2925V21.09Z" fill="#20314D"/>
<path d="M16.1925 13.4025H15.3675C15.4498 13.1791 15.4929 12.9431 15.495 12.705V11.3025C15.495 11.1175 15.4215 10.9401 15.2907 10.8093C15.1599 10.6785 14.9825 10.605 14.7975 10.605H13.3875C12.8681 10.6064 12.368 10.8017 11.985 11.1525C11.602 10.8017 11.1019 10.6064 10.5825 10.605H9.195C9.01001 10.605 8.8326 10.6785 8.70179 10.8093C8.57099 10.9401 8.4975 11.1175 8.4975 11.3025V12.705C8.49957 12.9431 8.5427 13.1791 8.625 13.4025H7.8C7.61402 13.4025 7.43565 13.4764 7.30414 13.6079C7.17263 13.7394 7.09875 13.9178 7.09875 14.1037C7.09875 14.2897 7.17263 14.4681 7.30414 14.5996C7.43565 14.7311 7.61402 14.805 7.8 14.805V14.805V18.9975C7.8 19.1825 7.87349 19.3599 8.00429 19.4907C8.1351 19.6215 8.31251 19.695 8.4975 19.695H15.495C15.68 19.695 15.8574 19.6215 15.9882 19.4907C16.119 19.3599 16.1925 19.1825 16.1925 18.9975V14.7975C16.3785 14.7975 16.5568 14.7236 16.6884 14.5921C16.8199 14.4606 16.8938 14.2822 16.8938 14.0962C16.8938 13.9103 16.8199 13.7319 16.6884 13.6004C16.5568 13.4689 16.3785 13.395 16.1925 13.395V13.4025ZM13.3875 12H14.085V12.6975C14.085 12.8799 14.0136 13.0551 13.886 13.1855C13.7585 13.3159 13.5849 13.3911 13.4025 13.395H12.6525V12.6975C12.6524 12.6027 12.6716 12.5088 12.7089 12.4216C12.7463 12.3345 12.8011 12.2558 12.8699 12.1905C12.9387 12.1253 13.02 12.0747 13.109 12.0419C13.1981 12.0092 13.2928 11.9949 13.3875 12V12ZM9.885 12.6975V12H10.5825C10.7675 12 10.9449 12.0735 11.0757 12.2043C11.2065 12.3351 11.28 12.5125 11.28 12.6975V13.395H10.53C10.3569 13.3801 10.1956 13.301 10.0777 13.1734C9.95976 13.0458 9.89372 12.8788 9.8925 12.705L9.885 12.6975ZM9.1875 14.79H11.2875V18.285H9.1875V14.79ZM14.79 18.285H12.69V14.805H14.79V18.285Z" fill="#20314D"/>
<path d="M8.505 8.4975H15.5025C15.6885 8.4975 15.8668 8.42362 15.9984 8.29211C16.1299 8.1606 16.2037 7.98223 16.2037 7.79625C16.2037 7.61027 16.1299 7.4319 15.9984 7.30039C15.8668 7.16888 15.6885 7.095 15.5025 7.095H8.505C8.31902 7.095 8.14065 7.16888 8.00914 7.30039C7.87763 7.4319 7.80375 7.61027 7.80375 7.79625C7.80375 7.98223 7.87763 8.1606 8.00914 8.29211C8.14065 8.42362 8.31902 8.4975 8.505 8.4975V8.4975Z" fill="#20314D"/>
</svg>
