<svg width="24" height="24" viewBox="0 0 24 24" fill="none" xmlns="http://www.w3.org/2000/svg">
<path d="M12.25 11.42L7.09 9.36L8 2.12L6 1.88L5.12 9H4V2H2V14.87L10.68 16.11L12.25 11.42ZM9.32 13.89L4 13.13V11H5.81L9.76 12.58L9.32 13.89Z" fill="#20314D"/>
<path d="M17.5 7C16.61 7 15.74 7.26392 14.9999 7.75839C14.2599 8.25285 13.6831 8.95566 13.3425 9.77792C13.0019 10.6002 12.9128 11.505 13.0865 12.3779C13.2601 13.2508 13.6887 14.0526 14.318 14.682C14.9474 15.3113 15.7492 15.7399 16.6221 15.9135C17.495 16.0872 18.3998 15.9981 19.2221 15.6575C20.0443 15.3169 20.7471 14.7401 21.2416 14.0001C21.7361 13.26 22 12.39 22 11.5C22 10.3065 21.5259 9.16193 20.682 8.31802C19.8381 7.47411 18.6935 7 17.5 7V7ZM17.5 14C17.0055 14 16.5222 13.8534 16.1111 13.5787C15.7 13.304 15.3795 12.9135 15.1903 12.4567C15.0011 11.9999 14.9516 11.4972 15.048 11.0123C15.1445 10.5273 15.3826 10.0819 15.7322 9.73223C16.0819 9.3826 16.5273 9.1445 17.0123 9.04804C17.4972 8.95157 17.9999 9.00108 18.4567 9.1903C18.9135 9.37952 19.304 9.69995 19.5787 10.1111C19.8534 10.5222 20 11.0055 20 11.5C20 12.163 19.7366 12.7989 19.2678 13.2678C18.7989 13.7366 18.163 14 17.5 14V14Z" fill="#20314D"/>
<path d="M18 18C17.4817 18.0054 16.9708 18.1236 16.5028 18.3464C16.0349 18.5691 15.621 18.8911 15.29 19.29C14.8 19.78 14.56 20 14 20C13.44 20 13.2 19.78 12.71 19.29C12.3838 18.8869 11.9716 18.5619 11.5036 18.3386C11.0355 18.1153 10.5236 17.9994 10.005 17.9994C9.48645 17.9994 8.97445 18.1153 8.50644 18.3386C8.03843 18.5619 7.62624 18.8869 7.3 19.29C6.8 19.78 6.56 20 6 20C5.44 20 5.2 19.78 4.71 19.29C4.37946 18.8906 3.96568 18.5683 3.49759 18.3455C3.0295 18.1226 2.51839 18.0047 2 18V20C2.56 20 2.8 20.22 3.29 20.71C3.62054 21.1094 4.03432 21.4317 4.50241 21.6546C4.9705 21.8774 5.48161 21.9953 6 22C6.5167 21.9938 7.02586 21.8752 7.49212 21.6525C7.95837 21.4297 8.37054 21.1081 8.7 20.71C9.19 20.22 9.43 20 9.99 20C10.55 20 10.79 20.22 11.28 20.71C11.6062 21.1149 12.0189 21.4415 12.4878 21.6659C12.9568 21.8903 13.4701 22.0068 13.99 22.0068C14.5099 22.0068 15.0232 21.8903 15.4922 21.6659C15.9611 21.4415 16.3738 21.1149 16.7 20.71C17.19 20.22 17.43 20 18 20C18.57 20 18.8 20.22 19.29 20.71C19.621 21.1089 20.0349 21.4309 20.5028 21.6536C20.9708 21.8764 21.4817 21.9946 22 22V20C21.44 20 21.2 19.78 20.71 19.29C20.379 18.8911 19.9651 18.5691 19.4972 18.3464C19.0292 18.1236 18.5183 18.0054 18 18V18Z" fill="#20314D"/>
</svg>
