<svg width="24" height="24" viewBox="0 0 24 24" fill="none" xmlns="http://www.w3.org/2000/svg">
<path d="M20 17H4C3.448 17 3 16.553 3 16V13C3 12.32 3.234 11.654 3.658 11.126L7.658 6.126C8.638 4.9 10.543 4.657 11.801 5.602L13.475 6.856L15.66 4.127C16.23 3.41 17.084 3 18.001 3C18.68 3 19.344 3.232 19.874 3.657C20.59 4.229 21 5.083 21 6V16C21 16.553 20.552 17 20 17ZM5 15H19V6C19 5.693 18.863 5.41 18.625 5.221C18.398 5.038 18.16 5 18.001 5C17.695 5 17.41 5.137 17.219 5.376L14.43 8.861C14.093 9.284 13.481 9.361 13.049 9.037L10.6 7.2C10.178 6.884 9.545 6.967 9.219 7.376L5.219 12.376C5.038 12.604 5 12.84 5 13V15Z" fill="#20314D"/>
<path d="M20 21H4C3.448 21 3 20.553 3 20C3 19.447 3.448 19 4 19H20C20.552 19 21 19.447 21 20C21 20.553 20.552 21 20 21Z" fill="#20314D"/>
</svg>
