<svg width="26" height="24" viewBox="0 0 26 24" fill="none" xmlns="http://www.w3.org/2000/svg">
<path d="M13.393 9.60068L19.25 11.7202V20.3667C19.25 20.5347 19.1842 20.6957 19.0669 20.8145C18.9497 20.9333 18.7908 21 18.625 21H16.125C15.9592 21 15.8003 20.9333 15.6831 20.8145C15.5658 20.6957 15.5 20.5347 15.5 20.3667V15.9336H9.25V20.3667C9.25 20.5347 9.18415 20.6957 9.06694 20.8145C8.94973 20.9333 8.79076 21 8.625 21H6.125C5.95924 21 5.80027 20.9333 5.68306 20.8145C5.56585 20.6957 5.5 20.5347 5.5 20.3667V11.8999C4.04844 11.3755 3 9.98303 3 8.33409C3 7.99817 3.1317 7.676 3.36612 7.43847C3.60054 7.20094 3.91848 7.0675 4.25 7.0675C4.58152 7.0675 4.89946 7.20094 5.13388 7.43847C5.3683 7.676 5.5 7.99817 5.5 8.33409C5.50062 8.66982 5.63251 8.99161 5.8668 9.22901C6.10109 9.4664 6.41867 9.60005 6.75 9.60068H13.393ZM23 5.16761V6.4342C23 7.10604 22.7366 7.75037 22.2678 8.22543C21.7989 8.70049 21.163 8.96738 20.5 8.96738H19.25V10.3757L14.25 8.56643V2.63443C14.25 2.0704 14.9227 1.78779 15.3168 2.18677L16.3824 3.26772H18.4773C18.9035 3.26772 19.4051 3.5812 19.5953 3.96791L19.875 4.53431H22.375C22.5408 4.53431 22.6997 4.60104 22.8169 4.7198C22.9342 4.83857 23 4.99965 23 5.16761ZM18.625 5.16761C18.625 5.04236 18.5883 4.91991 18.5197 4.81577C18.451 4.71162 18.3534 4.63045 18.2392 4.58252C18.125 4.53459 17.9993 4.52205 17.8781 4.54648C17.7568 4.57092 17.6455 4.63123 17.5581 4.7198C17.4707 4.80837 17.4111 4.92121 17.387 5.04406C17.3629 5.16691 17.3753 5.29424 17.4226 5.40996C17.4699 5.52568 17.55 5.62459 17.6528 5.69418C17.7555 5.76376 17.8764 5.80091 18 5.80091C18.1658 5.80091 18.3247 5.73418 18.4419 5.61542C18.5592 5.49665 18.625 5.33557 18.625 5.16761Z" fill="#20314D"/>
</svg>
