<svg width="24" height="24" viewBox="0 0 24 24" fill="none" xmlns="http://www.w3.org/2000/svg">
<path d="M18 18V5C18 4.20435 17.6839 3.44129 17.1213 2.87868C16.5587 2.31607 15.7956 2 15 2C14.2044 2 13.4413 2.31607 12.8787 2.87868C12.3161 3.44129 12 4.20435 12 5V6H14V5C14 4.73478 14.1054 4.48043 14.2929 4.29289C14.4804 4.10536 14.7348 4 15 4C15.133 4.00185 15.2643 4.03022 15.3862 4.08345C15.5082 4.13668 15.6182 4.2137 15.71 4.31C15.8923 4.49379 15.9963 4.74113 16 5V7H8V5C8.00409 4.6079 7.92916 4.21899 7.77969 3.85648C7.63022 3.49397 7.40926 3.16527 7.13 2.89C6.85338 2.60561 6.52206 2.38015 6.15601 2.2272C5.78995 2.07425 5.39672 1.99696 5 2C4.20435 2 3.44129 2.31607 2.87868 2.87868C2.31607 3.44129 2 4.20435 2 5V6H4V5C4 4.73478 4.10536 4.48043 4.29289 4.29289C4.48043 4.10536 4.73478 4 5 4C5.13302 4.00185 5.26433 4.03022 5.38624 4.08345C5.50815 4.13668 5.61822 4.2137 5.71 4.31C5.89234 4.49379 5.9963 4.74113 6 5V20C5.44 20 5.2 19.78 4.71 19.29C4.37946 18.8906 3.96568 18.5683 3.49759 18.3454C3.0295 18.1226 2.51839 18.0047 2 18V20C2.56 20 2.8 20.22 3.29 20.71C3.62054 21.1094 4.03432 21.4317 4.50241 21.6546C4.9705 21.8774 5.48161 21.9953 6 22C6.5167 21.9938 7.02586 21.8752 7.49212 21.6525C7.95837 21.4297 8.37054 21.1081 8.7 20.71C9.19 20.22 9.43 20 9.99 20C10.55 20 10.79 20.22 11.28 20.71C11.6062 21.1149 12.0189 21.4415 12.4878 21.6659C12.9568 21.8903 13.4701 22.0068 13.99 22.0068C14.5099 22.0068 15.0232 21.8903 15.4922 21.6659C15.9611 21.4415 16.3738 21.1149 16.7 20.71C17.19 20.22 17.43 20 18 20C18.57 20 18.8 20.22 19.29 20.71C19.621 21.1089 20.0349 21.4309 20.5028 21.6536C20.9708 21.8764 21.4817 21.9946 22 22V20C21.44 20 21.2 19.78 20.71 19.29C20.379 18.8911 19.9651 18.5691 19.4972 18.3464C19.0292 18.1236 18.5183 18.0054 18 18V18ZM16 15H8V13H16V15ZM16 9V11H8V9H16ZM14 20C13.44 20 13.2 19.78 12.71 19.29C12.3795 18.8906 11.9657 18.5683 11.4976 18.3454C11.0295 18.1226 10.5184 18.0047 10 18C9.27914 17.9852 8.5744 18.2142 8 18.65V17H16V18.65C15.7479 18.8456 15.5106 19.0595 15.29 19.29C14.79 19.78 14.55 20 14 20Z" fill="#20314D"/>
</svg>
