<svg width="24" height="24" viewBox="0 0 24 24" fill="none" xmlns="http://www.w3.org/2000/svg">
<path d="M6.15 7.275C5.6625 7.275 5.2875 7.65 5.2875 8.1375V9.8625C5.2875 10.35 5.6625 10.725 6.15 10.725H8.2875C8.775 10.725 9.15 10.35 9.15 9.8625V8.1375C9.15 7.65 8.775 7.275 8.2875 7.275H6.15V7.275ZM7.6875 9.225H6.825V8.775H7.6875V9.225Z" fill="#20314D"/>
<path d="M21.3 17.8125C21.2625 17.8125 21.2625 17.775 21.2625 17.775C20.2875 17.25 19.3875 16.65 18.5625 15.8625C17.8125 15.1125 17.25 14.2875 16.7625 13.35C15.675 11.4375 14.1 9.9375 12.1125 9C12.1125 8.7375 12.1125 8.475 12.1125 8.175C12.1125 7.575 12.1125 6.975 12.1125 6.375V6.3375C12.1125 6.3375 12.1125 6.3375 12.1125 6.3C12.1125 6.075 11.9625 5.8875 11.8125 5.775C11.775 5.7375 11.775 5.7375 11.7375 5.7C10.35 4.725 8.9625 3.75 7.6125 2.8125C7.425 2.6625 7.05 2.6625 6.8625 2.8125C5.475 3.9 4.125 4.95 2.7375 6L2.7 6.0375C2.5125 6.15 2.3625 6.3375 2.3625 6.6375C2.3625 10.8375 2.3625 15.0375 2.3625 19.2375C2.3625 19.8375 2.3625 20.4375 2.3625 21.0375C2.3625 22.0125 3.8625 22.0125 3.8625 21.0375C3.8625 20.5875 3.8625 20.1 3.8625 19.65H10.6125C10.6125 20.1 10.6125 20.5875 10.6125 21.0375C10.6125 22.0125 12.1125 22.0125 12.1125 21.0375C12.1125 18.7875 12.1125 16.575 12.1125 14.325C12.15 14.3625 12.1875 14.4 12.225 14.475C12.3 14.5875 12.3 14.5875 12.45 14.775C12.5625 14.925 12.675 15.1125 12.7875 15.3C13.3875 16.2375 13.9875 17.2125 14.6625 18.1125C15.4125 19.0875 16.2 20.0625 17.2125 20.775C18.3 21.5625 19.5375 21.9 20.85 21.9375C21.1875 21.9375 21.375 21.7875 21.4875 21.5625C21.5625 21.45 21.6 21.3375 21.6 21.1875C21.6 20.4 21.6 19.6125 21.6 18.825C21.6 18.7125 21.6 18.6 21.6 18.4875C21.6375 18.225 21.5625 18 21.3 17.8125ZM3.8625 13.3875H10.6125C10.6125 13.9125 10.6125 14.475 10.6125 15H3.8625C3.8625 14.475 3.8625 13.95 3.8625 13.3875ZM10.6125 6.7875C10.6125 8.475 10.6125 10.2 10.6125 11.8875H3.8625C3.8625 10.725 3.8625 9.5625 3.8625 8.4375C3.8625 7.95 3.8625 7.5 3.8625 7.0125C4.9875 6.15 6.1125 5.2875 7.2375 4.4625C8.3625 5.2125 9.4875 6 10.6125 6.7875ZM3.8625 16.5H10.6125C10.6125 17.025 10.6125 17.5875 10.6125 18.1125H3.8625C3.8625 17.5875 3.8625 17.0625 3.8625 16.5ZM15.6 16.8C15 15.975 14.475 15.1125 13.9125 14.2875C13.3875 13.5 12.7875 12.9 12.075 12.3C12.075 11.775 12.075 11.25 12.075 10.7625C12.6375 11.0625 13.1625 11.4375 13.6125 11.85C14.5125 12.675 15.075 13.6125 15.675 14.6625C16.725 16.5 18.2625 17.8875 20.0625 18.9375C20.0625 19.425 20.0625 19.875 20.0625 20.3625C19.2 20.2125 18.45 19.9125 17.775 19.35C16.95 18.6 16.2375 17.7 15.6 16.8Z" fill="#20314D"/>
</svg>
