<?xml version="1.0" standalone="no"?>
<!DOCTYPE svg PUBLIC "-//W3C//DTD SVG 20010904//EN"
 "http://www.w3.org/TR/2001/REC-SVG-20010904/DTD/svg10.dtd">
<svg version="1.0" xmlns="http://www.w3.org/2000/svg"
 width="1888.000000pt" height="512.000000pt" viewBox="0 0 1888.000000 512.000000"
 preserveAspectRatio="xMidYMid meet">

<g transform="translate(0.000000,512.000000) scale(0.100000,-0.100000)"
fill="#000000" stroke="none">
<path d="M6040 5090 c-8 -5 -39 -10 -67 -10 -29 0 -53 -4 -53 -10 0 -5 -20
-10 -44 -10 -25 0 -48 -4 -51 -10 -3 -5 -21 -10 -40 -10 -19 0 -37 -4 -40 -10
-3 -5 -14 -10 -24 -10 -9 0 -36 -9 -59 -20 -22 -11 -46 -20 -51 -20 -6 0 -27
-8 -48 -19 -21 -10 -65 -31 -98 -47 -33 -15 -62 -31 -65 -34 -9 -9 -64 -41
-82 -47 -10 -3 -18 -9 -18 -14 0 -5 -7 -9 -15 -9 -8 0 -15 -4 -15 -10 0 -5 -7
-10 -15 -10 -8 0 -15 -4 -15 -10 0 -5 -5 -10 -11 -10 -6 0 -16 -6 -23 -12 -8
-7 -40 -35 -72 -63 -75 -63 -234 -221 -234 -232 0 -5 -9 -15 -20 -23 -11 -8
-20 -19 -20 -25 0 -6 -8 -20 -19 -31 -27 -30 -84 -113 -112 -164 -13 -25 -26
-47 -30 -50 -6 -6 -47 -96 -81 -180 -6 -14 -14 -33 -19 -42 -5 -10 -9 -27 -9
-37 0 -11 -4 -22 -9 -25 -5 -3 -11 -18 -14 -33 -3 -16 -10 -46 -16 -68 -6 -22
-21 -85 -32 -140 -40 -184 -27 -599 22 -723 5 -13 9 -34 9 -47 0 -13 5 -27 10
-30 6 -3 10 -15 10 -26 0 -10 4 -27 9 -37 11 -23 42 -112 48 -139 3 -13 9 -23
14 -23 5 0 9 -9 9 -20 0 -11 5 -20 10 -20 6 0 10 -6 10 -13 0 -18 24 -67 33
-67 4 0 7 -9 7 -20 0 -11 5 -20 10 -20 6 0 10 -5 10 -10 0 -11 47 -87 67 -108
7 -7 13 -17 13 -21 0 -4 10 -19 21 -32 12 -13 33 -40 48 -59 71 -94 214 -237
281 -281 22 -15 36 -26 87 -69 7 -5 17 -10 23 -10 5 0 10 -4 10 -10 0 -5 7
-10 15 -10 8 0 15 -4 15 -10 0 -5 7 -10 15 -10 8 0 15 -4 15 -10 0 -5 9 -10
19 -10 11 0 21 -3 23 -8 3 -7 156 -84 203 -102 11 -4 36 -15 57 -24 33 -15
121 -42 208 -66 56 -15 100 -21 175 -27 39 -2 74 -9 79 -14 14 -13 316 -12
316 1 0 6 27 10 60 10 33 0 81 5 107 11 97 23 238 62 248 68 6 4 28 13 50 20
22 8 67 26 100 41 33 15 75 33 93 41 17 8 32 17 32 21 0 5 7 8 15 8 9 0 25 9
37 20 12 11 28 20 35 20 7 0 13 4 13 8 0 5 12 14 26 21 74 33 290 226 383 341
20 25 43 52 51 60 8 8 21 27 29 43 8 15 18 27 23 27 4 0 8 5 8 11 0 6 9 24 20
40 76 106 210 401 210 462 0 10 4 25 9 35 5 9 14 42 20 72 6 30 16 80 23 110
17 76 17 454 0 540 -7 36 -18 90 -24 120 -5 30 -14 64 -18 75 -4 11 -13 40
-20 65 -6 25 -16 53 -21 62 -5 10 -9 27 -9 38 0 11 -4 20 -10 20 -5 0 -10 7
-10 16 0 18 -111 237 -122 242 -5 2 -8 10 -8 18 0 8 -4 14 -10 14 -5 0 -10 8
-10 18 0 10 -9 24 -20 32 -11 8 -20 21 -20 29 0 7 -8 21 -18 30 -9 9 -31 34
-47 56 -39 53 -239 253 -290 291 -22 16 -49 37 -59 47 -11 9 -26 17 -33 17 -7
0 -13 5 -13 10 0 6 -7 10 -15 10 -8 0 -15 5 -15 10 0 6 -6 10 -14 10 -8 0 -16
3 -18 8 -7 17 -305 162 -333 162 -8 0 -17 5 -20 10 -3 6 -17 10 -30 10 -13 0
-26 4 -29 9 -6 8 -30 14 -113 27 -21 3 -47 9 -58 14 -34 15 -112 21 -335 26
-136 3 -221 1 -230 -6z m400 -270 c0 -6 26 -10 59 -10 33 0 63 -4 66 -10 3 -5
22 -10 41 -10 19 0 42 -4 52 -9 9 -5 35 -14 57 -20 22 -7 49 -16 60 -20 11 -5
31 -13 45 -18 96 -38 300 -154 308 -175 2 -4 9 -8 16 -8 13 0 43 -25 163 -138
40 -37 73 -71 73 -75 0 -4 16 -23 35 -43 19 -19 35 -39 35 -44 0 -5 6 -15 13
-22 51 -52 132 -192 179 -308 6 -14 14 -33 19 -42 5 -10 9 -27 9 -38 0 -11 4
-20 9 -20 5 0 11 -15 14 -32 3 -18 10 -51 17 -73 33 -114 53 -294 47 -430 -5
-111 -11 -157 -38 -275 -16 -72 -73 -245 -81 -248 -5 -2 -8 -9 -8 -16 0 -35
-154 -293 -182 -304 -4 -2 -8 -9 -8 -16 0 -16 -191 -212 -245 -252 -22 -16
-49 -37 -59 -46 -11 -10 -26 -18 -33 -18 -7 0 -13 -4 -13 -8 0 -7 -47 -36
-107 -66 -13 -6 -23 -14 -23 -18 0 -5 -9 -8 -20 -8 -11 0 -20 -4 -20 -9 0 -5
-10 -13 -22 -16 -13 -4 -42 -15 -65 -26 -24 -10 -49 -19 -57 -19 -8 0 -17 -4
-20 -9 -3 -5 -18 -11 -33 -14 -16 -3 -46 -11 -68 -17 -148 -42 -350 -62 -509
-49 -67 6 -135 14 -152 20 -17 5 -40 9 -52 9 -11 0 -31 4 -44 9 -13 5 -43 14
-68 21 -25 7 -54 16 -65 20 -11 5 -40 16 -65 25 -51 19 -224 109 -240 125 -3
3 -17 11 -32 19 -16 8 -28 18 -28 23 0 4 -6 8 -14 8 -8 0 -16 3 -18 8 -1 4
-21 20 -43 37 -51 38 -175 155 -175 165 0 5 -15 24 -34 43 -18 19 -48 57 -67
83 -18 27 -36 51 -41 52 -4 2 -8 10 -8 18 0 8 -4 14 -10 14 -5 0 -10 9 -10 20
0 11 -3 20 -8 20 -4 0 -21 28 -39 63 -85 170 -114 255 -149 442 -21 115 -21
384 1 500 10 50 20 105 22 123 3 18 9 35 14 38 5 3 9 12 9 20 0 18 43 133 71
187 10 22 19 45 19 53 0 8 5 14 10 14 6 0 10 9 10 20 0 11 5 20 10 20 6 0 10
5 10 11 0 6 14 30 30 54 17 24 30 48 30 54 0 6 4 11 8 11 4 0 15 13 24 28 33
55 167 198 246 262 24 19 56 45 70 57 15 13 33 23 40 23 6 0 12 4 12 8 0 5 12
15 28 23 15 8 29 17 32 20 6 8 152 82 205 104 22 9 48 21 57 26 10 5 25 9 33
9 8 0 23 4 33 9 31 15 88 31 115 31 14 0 29 5 32 10 3 6 30 10 58 10 29 0 59
5 67 10 20 13 360 13 360 0z"/>
<path d="M499 5024 c-7 -9 -16 -37 -20 -62 -5 -26 -13 -69 -19 -97 -6 -27 -13
-66 -16 -85 -3 -19 -9 -44 -14 -55 -5 -11 -11 -36 -14 -55 -7 -46 -22 -125
-34 -175 -6 -22 -15 -65 -22 -95 -7 -30 -16 -73 -21 -95 -12 -54 -28 -130 -39
-185 -4 -25 -16 -76 -25 -115 -29 -123 -57 -249 -61 -285 -3 -19 -9 -44 -14
-55 -5 -11 -11 -36 -14 -55 -3 -19 -10 -57 -16 -85 -6 -27 -15 -70 -20 -95 -5
-25 -14 -65 -19 -90 -6 -25 -15 -65 -21 -90 -5 -25 -14 -65 -20 -90 -9 -42
-18 -83 -41 -200 -4 -25 -15 -71 -22 -102 -8 -32 -12 -60 -9 -63 10 -10 221
-5 246 6 26 12 66 84 66 118 0 10 9 55 20 100 12 46 25 104 31 129 6 26 15 67
20 92 6 25 13 63 16 85 3 22 9 44 14 49 5 6 9 28 9 51 0 23 4 45 9 50 5 6 11
28 14 50 3 22 10 58 15 80 11 42 28 122 43 193 5 23 13 61 19 85 5 23 14 65
19 92 6 28 18 82 27 120 14 62 24 110 65 295 6 25 13 60 16 78 3 17 8 32 10
32 8 0 53 -54 53 -63 0 -4 15 -30 34 -57 19 -27 40 -63 47 -80 8 -16 17 -30
21 -30 5 0 8 -7 8 -15 0 -8 4 -15 8 -15 5 0 14 -16 22 -35 8 -19 17 -35 20
-35 3 0 12 -16 20 -35 8 -19 16 -35 19 -35 3 0 17 -21 31 -47 13 -27 27 -50
30 -53 8 -7 58 -85 79 -124 11 -18 25 -44 33 -57 7 -13 15 -26 18 -29 3 -3 11
-16 18 -29 8 -13 22 -38 32 -56 33 -59 45 -79 53 -89 17 -22 109 -175 127
-211 8 -17 23 -39 33 -49 9 -11 17 -26 17 -33 0 -7 5 -13 10 -13 6 0 10 -9 10
-20 0 -11 3 -20 8 -20 4 0 12 -10 18 -23 6 -12 41 -71 79 -132 62 -101 78
-128 117 -196 7 -13 15 -26 18 -29 3 -3 11 -15 18 -27 30 -55 38 -68 47 -79 6
-7 25 -39 43 -72 61 -107 111 -142 174 -119 40 14 78 46 78 64 0 7 5 13 10 13
6 0 10 5 10 10 0 10 68 119 81 130 3 3 12 20 20 38 8 17 17 32 21 32 5 0 8 7
8 15 0 8 4 15 8 15 5 0 14 16 22 35 8 19 17 35 22 35 4 0 8 5 8 11 0 6 8 23
19 37 10 15 28 43 38 62 43 75 118 195 126 198 4 2 7 12 7 23 0 10 5 19 10 19
6 0 10 7 10 15 0 8 5 15 10 15 6 0 10 7 10 15 0 8 4 15 9 15 5 0 11 8 14 18 7
20 37 70 109 183 29 46 59 96 67 112 8 15 18 27 23 27 4 0 8 9 8 20 0 11 5 20
10 20 6 0 10 6 10 13 0 7 9 23 20 35 11 12 20 28 20 37 0 8 5 15 10 15 6 0 10
4 10 9 0 5 15 33 33 62 18 30 43 70 54 89 12 19 25 40 30 45 16 22 44 71 50
88 3 9 8 17 12 17 4 0 13 16 21 35 8 19 17 35 22 35 4 0 8 6 8 13 0 7 8 22 18
33 9 10 28 39 41 64 13 25 34 59 47 77 13 17 24 36 24 41 0 8 22 22 36 22 2 0
4 -17 4 -38 0 -21 4 -42 9 -47 5 -6 11 -28 14 -50 8 -56 28 -152 71 -350 15
-66 31 -145 37 -175 11 -57 21 -105 39 -187 16 -72 30 -144 36 -183 3 -19 9
-44 14 -55 5 -11 11 -36 14 -55 3 -19 10 -60 16 -90 6 -30 13 -71 16 -90 3
-19 9 -44 14 -55 5 -11 11 -38 14 -60 9 -60 30 -163 61 -300 18 -74 29 -128
45 -210 13 -72 28 -143 41 -195 14 -62 29 -138 36 -185 3 -22 9 -44 14 -49 5
-6 9 -32 9 -58 0 -26 4 -48 9 -48 5 0 11 -21 14 -47 5 -53 41 -226 53 -258 9
-23 19 -34 54 -58 19 -14 47 -17 136 -17 l111 0 -9 53 c-4 28 -12 70 -17 92
-32 141 -48 221 -58 290 -3 22 -9 44 -14 49 -5 6 -9 28 -9 51 0 23 -4 45 -9
51 -5 5 -11 27 -14 49 -3 22 -11 65 -17 95 -7 30 -16 73 -20 95 -5 22 -20 94
-34 160 -15 66 -31 145 -37 175 -11 58 -22 108 -39 188 -6 26 -15 67 -20 92
-5 25 -14 68 -20 95 -17 76 -30 146 -36 185 -3 19 -9 44 -14 55 -5 11 -11 36
-14 55 -3 19 -10 58 -15 85 -6 28 -14 73 -20 100 -8 46 -28 136 -52 240 -5 22
-14 65 -20 95 -23 117 -27 137 -39 190 -26 116 -49 232 -56 280 -3 19 -9 44
-14 55 -5 11 -11 36 -14 55 -6 39 -20 111 -35 180 -5 25 -13 59 -16 75 -29
147 -49 181 -122 204 -73 24 -145 -11 -184 -88 -14 -27 -92 -148 -109 -168 -5
-7 -10 -19 -10 -28 0 -8 -4 -15 -10 -15 -5 0 -10 -7 -10 -15 0 -8 -3 -15 -7
-15 -5 0 -19 -23 -32 -50 -14 -28 -29 -50 -33 -50 -4 0 -8 -9 -8 -20 0 -11 -4
-20 -8 -20 -5 0 -15 -12 -23 -27 -8 -16 -33 -58 -56 -95 -24 -36 -43 -71 -43
-77 0 -6 -4 -11 -10 -11 -5 0 -10 -6 -10 -13 0 -7 -9 -23 -20 -35 -11 -12 -20
-28 -20 -37 0 -8 -4 -15 -10 -15 -5 0 -10 -7 -10 -15 0 -8 -3 -15 -7 -15 -5 0
-19 -23 -32 -50 -14 -28 -29 -50 -33 -50 -4 0 -8 -5 -8 -11 0 -6 -25 -49 -55
-95 -30 -47 -55 -89 -55 -94 0 -6 -4 -10 -10 -10 -5 0 -10 -9 -10 -20 0 -11
-4 -20 -10 -20 -5 0 -10 -6 -10 -13 0 -7 -8 -22 -17 -33 -10 -10 -25 -32 -33
-49 -8 -16 -27 -49 -42 -72 -15 -23 -28 -46 -28 -52 0 -6 -4 -11 -8 -11 -5 0
-17 -18 -27 -40 -10 -22 -21 -40 -25 -40 -4 0 -13 -13 -20 -30 -7 -16 -16 -30
-21 -30 -5 0 -9 -9 -9 -20 0 -11 -4 -20 -10 -20 -5 0 -10 -7 -10 -15 0 -8 -3
-15 -7 -15 -5 0 -19 -23 -32 -50 -14 -28 -28 -50 -32 -50 -4 0 -9 -8 -12 -17
-4 -10 -16 -34 -29 -54 -13 -20 -36 -58 -53 -85 -16 -27 -33 -50 -37 -52 -4
-2 -8 -9 -8 -15 0 -7 -11 -25 -25 -41 -22 -25 -26 -27 -40 -13 -8 9 -15 22
-15 30 0 9 -3 17 -8 19 -12 5 -108 158 -118 191 -4 9 -10 17 -15 17 -5 0 -9 7
-9 15 0 9 -9 25 -20 37 -11 12 -20 28 -20 35 0 7 -3 13 -8 13 -4 0 -14 15 -22
33 -7 17 -18 37 -23 42 -4 6 -18 26 -30 45 -11 19 -36 59 -54 89 -18 29 -33
55 -33 58 0 2 -13 24 -30 48 -16 24 -30 48 -30 54 0 6 -4 11 -10 11 -5 0 -10
9 -10 19 0 11 -3 21 -7 23 -5 2 -35 48 -68 103 -32 55 -62 102 -65 105 -9 9
-41 65 -47 83 -3 9 -8 17 -12 17 -4 0 -13 16 -21 35 -8 19 -17 35 -22 35 -4 0
-8 7 -8 15 0 8 -3 15 -8 15 -4 0 -14 15 -22 33 -7 17 -18 37 -22 42 -17 20
-98 157 -98 166 0 5 -4 9 -8 9 -5 0 -14 16 -22 35 -8 19 -17 35 -20 35 -4 0
-18 21 -31 48 -13 26 -27 49 -31 50 -5 2 -8 10 -8 18 0 8 -4 14 -9 14 -5 0
-11 8 -14 18 -6 19 -38 74 -48 82 -3 3 -14 21 -24 40 -10 19 -21 37 -24 40
-10 8 -42 63 -48 83 -3 9 -9 17 -14 17 -5 0 -9 6 -9 14 0 42 -200 77 -231 40z"/>
<path d="M8524 5014 c-10 -38 1 -156 16 -180 30 -49 28 -49 500 -55 271 -3
455 -10 470 -16 14 -6 43 -16 65 -22 106 -32 247 -110 296 -163 9 -10 21 -18
27 -18 26 0 168 -192 211 -285 13 -27 27 -58 32 -67 5 -10 9 -29 9 -43 0 -14
4 -25 9 -25 13 0 22 -75 27 -229 3 -87 1 -138 -5 -144 -6 -6 -11 -28 -11 -48
0 -21 -4 -41 -10 -44 -5 -3 -10 -17 -10 -30 0 -13 -4 -27 -10 -30 -5 -3 -10
-17 -10 -30 0 -13 -3 -25 -8 -27 -4 -1 -22 -32 -40 -68 -34 -69 -69 -114 -142
-189 -55 -56 -135 -121 -148 -121 -6 0 -12 -3 -14 -8 -1 -4 -34 -22 -73 -41
-38 -18 -78 -37 -87 -42 -10 -5 -27 -9 -37 -9 -11 0 -22 -4 -25 -9 -11 -17
-95 -23 -426 -30 -215 -4 -344 -10 -360 -17 -56 -26 -104 -128 -70 -149 6 -3
10 -12 10 -19 0 -12 933 -953 1134 -1143 l76 -73 165 0 c91 0 165 4 165 9 0 5
-252 260 -560 568 -308 308 -560 563 -560 567 0 3 78 6 174 6 106 0 177 4 181
10 3 6 26 10 50 10 24 0 47 5 50 10 3 6 19 10 35 10 16 0 32 5 35 10 3 6 17
10 31 10 13 0 24 5 24 10 0 6 8 10 17 10 19 0 186 88 191 101 2 5 9 9 16 9 7
0 21 8 32 18 10 10 35 29 54 42 45 32 138 126 170 170 13 19 31 42 40 50 18
18 28 35 88 149 50 94 82 175 82 208 0 12 5 25 10 28 6 3 10 26 10 50 0 24 5
47 10 50 6 4 10 68 10 161 0 96 -4 154 -10 154 -5 0 -10 24 -10 54 0 30 -4 58
-10 61 -5 3 -10 19 -10 34 0 15 -4 31 -8 36 -4 6 -14 28 -21 50 -13 41 -61
146 -71 155 -3 3 -12 19 -20 35 -8 17 -23 39 -32 49 -10 11 -18 23 -18 28 0
29 -247 268 -277 268 -6 0 -13 3 -15 8 -3 7 -105 72 -114 72 -2 0 -23 8 -47
19 -93 41 -132 54 -233 80 -23 6 -78 11 -122 11 -44 0 -84 5 -87 10 -4 6 -150
10 -405 10 l-400 0 -6 -26z"/>
<path d="M12435 5026 c-42 -16 -68 -44 -89 -96 -10 -25 -23 -58 -31 -75 -7
-16 -30 -73 -50 -125 -21 -52 -42 -99 -47 -104 -4 -6 -8 -18 -8 -28 0 -10 -4
-18 -10 -18 -5 0 -10 -9 -10 -20 0 -11 -4 -28 -9 -38 -5 -9 -13 -28 -18 -42
-6 -14 -15 -37 -22 -52 -6 -16 -16 -40 -22 -55 -7 -16 -16 -38 -20 -50 -5 -13
-13 -33 -18 -45 -4 -13 -14 -36 -21 -53 -12 -28 -17 -40 -39 -97 -4 -13 -21
-52 -36 -88 -15 -36 -32 -76 -38 -90 -5 -14 -13 -33 -18 -42 -5 -10 -9 -27 -9
-38 0 -11 -4 -20 -10 -20 -5 0 -10 -9 -10 -20 0 -11 -4 -20 -10 -20 -5 0 -10
-9 -10 -20 0 -11 -4 -28 -9 -38 -9 -18 -16 -35 -60 -144 -5 -13 -16 -39 -24
-58 -8 -19 -25 -60 -37 -90 -38 -95 -42 -105 -51 -122 -5 -10 -9 -25 -9 -33 0
-8 -4 -15 -10 -15 -5 0 -10 -9 -10 -20 0 -11 -4 -28 -9 -38 -9 -17 -23 -51
-40 -94 -4 -13 -13 -35 -20 -50 -6 -16 -15 -39 -21 -53 -10 -25 -25 -60 -41
-100 -5 -11 -20 -46 -34 -79 -14 -32 -25 -65 -25 -72 0 -8 -4 -14 -8 -14 -5 0
-15 -23 -22 -51 -8 -27 -18 -52 -22 -55 -4 -3 -8 -14 -8 -25 0 -10 -4 -19 -10
-19 -5 0 -10 -11 -10 -24 0 -14 -4 -28 -10 -31 -5 -3 -10 -15 -10 -26 0 -10
-4 -19 -10 -19 -5 0 -10 -8 -10 -18 0 -10 -9 -37 -20 -60 -11 -22 -20 -45 -20
-50 0 -4 -9 -27 -20 -50 -11 -22 -20 -45 -20 -50 0 -4 -11 -30 -24 -58 -13
-27 -29 -67 -37 -89 -8 -22 -17 -42 -20 -45 -3 -3 -12 -26 -20 -53 -7 -26 -17
-47 -21 -47 -4 0 -8 -6 -8 -14 0 -11 -10 -40 -50 -141 -4 -11 -15 -36 -23 -55
-21 -49 -57 -140 -57 -145 0 -3 56 -5 124 -5 120 0 126 1 156 27 30 25 80 119
80 149 0 8 4 14 8 14 4 0 14 21 21 47 8 27 18 55 22 63 8 18 28 66 40 98 17
44 27 68 48 114 12 26 21 54 21 61 0 7 4 17 9 23 12 13 101 234 101 250 0 8 5
14 10 14 6 0 10 11 10 24 0 14 5 28 10 31 6 3 10 15 10 26 0 10 5 19 10 19 6
0 10 6 10 13 0 10 46 137 71 192 36 83 79 192 79 202 0 7 4 13 8 13 5 0 15 23
22 50 7 28 17 50 22 50 4 0 8 9 8 19 0 11 4 22 8 25 4 3 14 28 22 55 7 28 17
51 22 51 4 0 8 8 8 18 0 10 9 37 20 60 11 22 20 48 20 57 0 8 4 15 8 15 4 0
14 21 21 46 8 25 22 62 31 83 19 38 46 100 62 141 6 14 14 33 19 42 5 10 9 27
9 38 0 11 5 20 10 20 6 0 10 9 10 20 0 11 8 34 18 52 10 18 24 53 32 78 7 25
17 50 20 55 4 6 15 30 24 55 10 25 24 59 31 75 29 63 65 159 65 172 0 7 5 13
10 13 6 0 10 7 10 15 0 8 4 23 9 33 5 9 14 31 21 47 7 17 16 38 21 47 5 10 9
23 9 28 0 6 9 30 20 52 11 23 20 50 20 60 0 10 5 18 10 18 6 0 10 9 10 20 0
53 38 3 80 -105 10 -25 49 -115 61 -137 5 -10 9 -27 9 -38 0 -11 5 -20 10 -20
6 0 10 -9 10 -20 0 -11 5 -20 10 -20 6 0 10 -6 10 -14 0 -7 16 -49 35 -92 20
-44 39 -88 44 -99 5 -11 18 -40 29 -65 53 -118 62 -141 62 -155 0 -8 5 -15 10
-15 6 0 10 -9 10 -20 0 -11 5 -20 10 -20 6 0 10 -9 10 -20 0 -11 4 -28 9 -38
9 -17 33 -70 66 -147 10 -22 31 -67 46 -99 16 -33 29 -63 29 -68 0 -4 14 -37
30 -73 17 -36 30 -72 30 -80 0 -8 5 -15 10 -15 6 0 10 -7 10 -15 0 -8 4 -23 9
-33 23 -42 51 -113 51 -127 0 -8 5 -15 10 -15 6 0 10 -4 10 -10 0 -6 -135 -10
-385 -10 -250 0 -385 -4 -385 -10 0 -5 -7 -10 -16 -10 -20 0 -44 -24 -44 -44
0 -8 -4 -18 -10 -21 -5 -3 -10 -46 -10 -96 l0 -89 635 0 c417 0 635 3 635 10
0 6 -4 10 -10 10 -5 0 -10 6 -10 14 0 7 -16 49 -36 92 -19 43 -39 88 -44 99
-4 11 -22 49 -38 85 -17 36 -37 85 -44 108 -7 23 -16 42 -20 42 -5 0 -8 9 -8
20 0 11 -4 20 -8 20 -5 0 -15 23 -22 50 -7 28 -17 50 -22 50 -4 0 -8 8 -8 18
0 10 -4 22 -8 28 -5 5 -16 27 -24 49 -9 22 -30 72 -48 110 -18 39 -36 79 -40
90 -4 11 -17 40 -29 63 -11 24 -21 52 -21 63 0 10 -4 19 -10 19 -5 0 -10 9
-10 20 0 11 -4 20 -10 20 -5 0 -10 8 -10 18 0 17 -26 80 -50 124 -6 10 -10 25
-10 33 0 8 -4 15 -10 15 -5 0 -10 7 -10 15 0 8 -16 50 -36 93 -20 42 -39 86
-44 97 -4 11 -18 43 -30 70 -12 28 -27 61 -32 75 -6 14 -14 33 -19 42 -5 10
-9 25 -9 33 0 8 -4 15 -10 15 -5 0 -10 8 -10 18 0 10 -4 22 -8 28 -5 5 -16 27
-24 49 -9 22 -28 67 -43 100 -31 69 -54 121 -65 150 -4 11 -17 40 -29 63 -11
24 -21 48 -21 53 0 19 -46 55 -86 67 -50 15 -148 14 -189 -2z"/>
<path d="M13999 5026 c-42 -12 -79 -42 -79 -63 0 -7 -5 -13 -10 -13 -7 0 -10
-33 -8 -92 l3 -93 1003 0 1003 0 34 37 35 37 0 100 0 101 -972 -1 c-700 -1
-983 -4 -1009 -13z"/>
<path d="M17270 5033 c-48 -17 -80 -37 -80 -49 0 -8 -4 -14 -10 -14 -5 0 -10
-6 -10 -13 0 -7 -9 -32 -20 -55 -11 -22 -20 -48 -20 -57 0 -8 -4 -15 -10 -15
-5 0 -10 -7 -10 -15 0 -8 -4 -23 -9 -33 -5 -9 -16 -34 -25 -54 -37 -88 -45
-106 -71 -163 -15 -33 -36 -80 -47 -105 -11 -25 -24 -53 -29 -62 -5 -10 -9
-25 -9 -33 0 -8 -4 -15 -10 -15 -5 0 -10 -9 -10 -19 0 -11 -10 -39 -21 -63
-12 -23 -25 -52 -29 -63 -5 -11 -22 -50 -39 -87 -17 -37 -31 -69 -31 -72 0 -2
-16 -39 -35 -80 -19 -42 -40 -94 -47 -116 -7 -22 -16 -40 -20 -40 -5 0 -8 -9
-8 -20 0 -11 -4 -20 -10 -20 -5 0 -10 -7 -10 -15 0 -8 -4 -23 -9 -33 -5 -9
-14 -30 -21 -47 -7 -16 -16 -38 -21 -47 -5 -10 -9 -25 -9 -33 0 -8 -4 -15 -10
-15 -5 0 -10 -7 -10 -15 0 -8 -4 -23 -9 -33 -17 -32 -88 -189 -113 -252 -6
-14 -14 -33 -19 -42 -5 -10 -9 -25 -9 -33 0 -8 -4 -15 -10 -15 -5 0 -10 -9
-10 -19 0 -11 -4 -23 -10 -26 -5 -3 -10 -13 -10 -21 0 -8 -14 -45 -31 -82 -17
-37 -35 -76 -39 -87 -4 -11 -22 -51 -39 -88 -17 -37 -31 -70 -31 -72 0 -3 284
-5 630 -5 l630 0 0 90 c0 86 -7 115 -37 147 -6 7 -19 13 -27 13 -9 0 -16 5
-16 10 0 6 -133 10 -380 10 l-380 0 6 28 c4 15 11 29 16 30 4 2 8 10 8 18 0 8
4 22 9 32 5 9 13 28 19 42 5 14 20 48 32 75 12 28 26 59 31 70 4 11 24 55 44
98 19 43 35 85 35 93 0 8 5 14 10 14 6 0 10 9 10 20 0 11 5 20 10 20 6 0 10
11 10 24 0 14 5 28 10 31 6 3 10 15 10 26 0 10 5 19 10 19 6 0 10 9 10 19 0
11 5 23 10 26 6 3 10 13 10 21 0 8 14 45 31 82 17 37 35 76 39 87 4 11 20 47
35 80 15 33 36 80 47 105 11 25 24 53 29 62 5 10 9 25 9 33 0 8 5 15 10 15 6
0 10 7 10 15 0 8 9 37 21 63 12 26 24 56 29 67 4 11 18 43 30 70 12 28 26 59
31 70 43 103 59 135 68 135 6 0 11 -7 11 -15 0 -8 5 -15 10 -15 6 0 10 -9 10
-19 0 -11 5 -23 10 -26 6 -3 10 -17 10 -31 0 -13 5 -24 10 -24 6 0 10 -9 10
-20 0 -11 4 -28 9 -38 5 -9 13 -28 19 -42 5 -14 20 -47 32 -75 30 -67 50 -115
62 -145 6 -14 14 -33 19 -42 5 -10 9 -23 9 -28 0 -6 9 -30 20 -52 11 -23 20
-50 20 -60 0 -10 5 -18 10 -18 6 0 10 -7 10 -15 0 -8 5 -24 10 -35 6 -11 15
-29 20 -40 6 -11 10 -29 10 -40 0 -11 4 -20 8 -20 4 0 14 -21 21 -47 8 -27 17
-52 21 -58 4 -5 22 -46 40 -90 17 -44 38 -93 45 -110 7 -16 23 -57 35 -90 13
-33 27 -64 32 -69 4 -6 8 -20 8 -33 0 -13 4 -23 8 -23 5 0 15 -22 22 -50 7
-27 17 -50 22 -50 4 0 8 -7 8 -15 0 -8 4 -23 9 -33 22 -44 51 -113 51 -122 0
-5 12 -35 26 -67 14 -32 30 -68 35 -80 5 -13 14 -34 19 -48 6 -14 14 -35 19
-47 13 -35 27 -70 41 -103 7 -16 17 -41 23 -55 5 -14 13 -33 18 -42 5 -10 9
-27 9 -38 0 -11 5 -20 10 -20 6 0 10 -6 10 -14 0 -7 11 -40 25 -72 41 -96 45
-103 55 -129 6 -14 15 -36 20 -50 6 -14 15 -36 20 -50 6 -14 14 -35 19 -47 14
-38 33 -82 42 -100 5 -10 9 -27 9 -38 0 -11 5 -20 10 -20 6 0 10 -7 10 -15 0
-8 4 -23 9 -33 5 -9 13 -28 18 -42 23 -57 32 -78 58 -140 15 -36 33 -76 39
-90 6 -14 23 -37 38 -52 27 -28 30 -28 153 -28 93 0 125 3 125 13 0 6 -34 95
-75 196 -41 101 -75 190 -75 197 0 8 -4 14 -10 14 -5 0 -10 9 -10 20 0 11 -4
28 -9 38 -5 9 -13 28 -19 42 -5 14 -19 46 -31 72 -12 26 -21 51 -21 56 0 8
-42 102 -60 134 -6 10 -10 23 -10 28 0 6 -9 30 -20 52 -11 23 -20 50 -20 60 0
10 -4 18 -10 18 -5 0 -10 7 -10 15 0 9 -9 35 -20 57 -11 23 -20 50 -20 60 0
10 -4 18 -8 18 -5 0 -15 23 -22 50 -7 28 -17 50 -22 50 -4 0 -8 6 -8 13 0 10
-100 263 -140 355 -6 12 -15 34 -21 50 -6 15 -15 35 -20 44 -5 10 -9 27 -9 38
0 11 -4 20 -10 20 -5 0 -10 8 -10 18 0 11 -6 32 -14 48 -17 35 -36 80 -66 154
-12 30 -29 71 -37 90 -22 51 -35 82 -43 105 -4 11 -12 32 -19 48 -6 15 -15 37
-20 50 -14 37 -33 81 -42 99 -5 10 -9 27 -9 38 0 11 -4 20 -8 20 -5 0 -15 23
-22 50 -7 28 -17 50 -22 50 -4 0 -8 6 -8 14 0 12 -16 52 -62 156 -6 14 -15 36
-21 50 -5 14 -13 33 -18 42 -5 10 -9 22 -9 28 0 6 -9 32 -21 58 -12 26 -26 58
-31 72 -6 14 -14 33 -19 42 -5 10 -9 27 -9 38 0 11 -4 20 -10 20 -5 0 -10 7
-10 15 0 8 -4 23 -9 33 -22 44 -51 114 -51 122 0 6 -11 33 -25 62 -14 28 -25
57 -25 63 0 23 -57 78 -95 91 -39 13 -145 18 -175 7z"/>
<path d="M14864 4127 c-51 -26 -49 35 -52 -1269 l-2 -1218 93 0 c80 0 98 3
121 21 59 47 56 -31 56 1279 l0 1200 -97 -1 c-54 -1 -108 -6 -119 -12z"/>
<path d="M3370 624 c-19 -8 -43 -17 -52 -20 -10 -4 -18 -10 -18 -15 0 -5 -5
-9 -10 -9 -14 0 -60 -46 -60 -60 0 -5 -4 -10 -10 -10 -5 0 -10 -7 -10 -15 0
-8 -4 -15 -10 -15 -5 0 -10 -11 -10 -24 0 -14 -4 -28 -10 -31 -12 -8 -13 -169
-1 -193 5 -9 15 -30 22 -47 8 -16 19 -35 24 -41 6 -7 17 -20 26 -30 31 -37 57
-53 132 -83 33 -13 180 -15 205 -2 9 5 31 15 47 22 17 8 41 24 54 36 22 19 23
23 8 37 -16 17 -47 22 -47 8 0 -5 -18 -18 -41 -30 -33 -18 -58 -22 -125 -22
-49 0 -84 4 -84 10 0 6 -9 10 -20 10 -11 0 -20 5 -20 10 0 6 -6 10 -13 10 -21
0 -72 60 -95 112 -28 60 -28 132 -2 193 20 48 79 115 99 115 6 0 11 3 11 8 0
25 201 45 215 22 3 -5 14 -10 24 -10 9 0 27 -9 39 -20 26 -24 38 -25 59 -4 15
14 14 18 -8 38 -50 46 -113 66 -201 65 -46 -1 -99 -8 -118 -15z"/>
<path d="M4105 627 c-3 -7 -4 -145 -3 -307 l3 -295 200 0 200 0 0 25 0 25
-167 3 -168 2 0 280 0 280 -30 0 c-17 0 -33 -6 -35 -13z"/>
<path d="M4854 625 c-4 -8 -4 -113 -2 -233 4 -176 8 -223 21 -248 21 -38 91
-104 111 -104 8 0 18 -5 21 -10 9 -14 162 -12 204 3 52 18 96 61 123 120 21
49 23 67 26 270 l3 218 -33 -3 -33 -3 -5 -220 c-4 -159 -9 -227 -19 -245 -20
-36 -52 -70 -68 -70 -7 0 -13 -4 -13 -10 0 -13 -157 -13 -165 0 -3 5 -13 10
-22 10 -20 0 -63 49 -63 73 0 9 -4 17 -10 17 -6 0 -10 82 -10 225 l0 225 -30
0 c-18 0 -33 -6 -36 -15z"/>
<path d="M5800 330 l0 -310 177 0 c161 0 234 9 253 31 3 3 13 8 22 12 49 18
77 143 46 200 -17 28 -60 67 -75 67 -18 0 -16 10 5 29 57 51 66 168 17 217
-53 53 -102 64 -281 64 l-164 0 0 -310z m353 235 c44 -18 57 -41 57 -97 -1
-82 -36 -101 -204 -106 -101 -4 -130 -2 -137 9 -5 8 -9 58 -9 112 l0 97 129 0
c92 0 139 -4 164 -15z m39 -278 c72 -36 74 -145 5 -188 -29 -17 -48 -19 -182
-17 l-150 3 -3 92 c-4 139 -9 135 156 131 108 -2 145 -7 174 -21z"/>
<path d="M6710 330 l0 -310 220 0 220 0 0 30 0 30 -185 0 -185 0 0 115 0 115
156 0 155 0 -3 28 -3 27 -152 3 -153 3 0 104 0 105 175 0 175 0 0 30 0 30
-210 0 -210 0 0 -310z"/>
<path d="M8020 330 l0 -310 35 0 35 0 0 94 c0 76 3 95 16 100 9 3 54 6 101 6
l85 0 34 -37 c19 -20 34 -43 34 -50 0 -7 4 -13 8 -13 5 0 15 -12 23 -27 22
-44 56 -73 84 -73 30 0 34 25 7 49 -9 9 -23 28 -31 43 -8 16 -18 28 -23 28 -4
0 -8 7 -8 15 0 8 -4 15 -10 15 -5 0 -10 7 -10 15 0 8 -4 15 -10 15 -17 0 -11
40 7 47 21 8 73 61 91 91 6 12 12 51 12 87 0 70 -8 92 -54 143 -51 56 -115 72
-281 72 l-145 0 0 -310z m319 238 c41 -15 81 -50 81 -72 0 -8 5 -18 10 -21 6
-3 10 -26 10 -50 0 -24 -4 -47 -10 -50 -5 -3 -10 -13 -10 -21 0 -48 -103 -84
-236 -84 l-94 0 0 155 0 155 107 0 c60 0 122 -6 142 -12z"/>
<path d="M8900 330 l0 -310 220 0 220 0 0 30 0 30 -185 0 -186 0 3 113 3 112
158 3 157 3 0 23 c0 13 -7 27 -16 30 -9 3 -81 6 -160 6 l-144 0 0 105 0 105
180 0 180 0 0 30 0 30 -215 0 -215 0 0 -310z"/>
<path d="M9798 621 c-44 -23 -88 -65 -88 -85 0 -8 -4 -18 -10 -21 -15 -9 -12
-57 5 -98 16 -38 71 -87 98 -87 9 0 18 -4 21 -9 3 -5 23 -11 43 -15 90 -13
113 -19 113 -27 0 -5 8 -9 18 -9 9 0 29 -11 45 -24 21 -18 27 -32 27 -62 -1
-75 -46 -104 -160 -104 -76 0 -180 30 -180 51 0 5 -9 9 -20 9 -15 0 -20 -7
-20 -26 0 -29 21 -54 44 -54 9 0 16 -4 16 -10 0 -5 11 -10 24 -10 14 0 28 -5
31 -10 9 -14 167 -12 217 2 55 17 98 63 113 121 7 26 8 50 4 53 -5 3 -9 16 -9
28 0 25 -44 76 -66 76 -8 0 -14 5 -14 10 0 6 -11 10 -24 10 -14 0 -28 5 -31
10 -3 6 -18 10 -32 10 -38 0 -144 39 -170 62 -45 41 -37 109 17 146 27 18 47
22 112 22 43 0 86 -4 96 -9 66 -34 73 -35 82 -21 32 50 -32 83 -170 87 -77 3
-102 0 -132 -16z"/>
<path d="M10530 330 l0 -310 30 0 30 0 0 310 0 310 -30 0 -30 0 0 -310z"/>
<path d="M11045 628 c-3 -7 -4 -146 -3 -308 l3 -295 160 1 c163 1 235 9 235
25 0 5 9 9 20 9 11 0 20 5 20 10 0 6 6 10 14 10 18 0 70 59 98 113 19 35 22
58 23 137 0 87 -3 100 -30 149 -16 29 -45 65 -65 80 -19 14 -36 29 -38 34 -2
4 -12 7 -23 7 -10 0 -19 4 -19 9 0 16 -63 24 -228 28 -127 3 -163 1 -167 -9z
m354 -68 c30 -11 67 -31 81 -45 98 -94 99 -274 3 -369 -50 -50 -88 -60 -240
-64 l-143 -4 0 251 0 251 123 0 c97 0 133 -4 176 -20z"/>
<path d="M12010 330 l0 -310 218 2 217 3 0 25 0 25 -183 3 -183 2 3 113 3 112
158 3 157 3 0 29 0 30 -160 0 -160 0 0 105 0 105 180 0 180 0 0 30 0 30 -215
0 -215 0 0 -310z"/>
<path d="M12855 627 c-3 -7 -4 -145 -3 -307 l3 -295 33 -3 32 -3 0 240 c0 154
4 241 10 241 6 0 10 -3 10 -7 0 -8 95 -130 143 -183 12 -14 33 -41 47 -60 27
-38 40 -55 82 -103 15 -18 28 -35 28 -38 0 -4 13 -22 30 -40 16 -19 30 -37 30
-41 0 -5 14 -8 30 -8 l30 0 0 310 0 310 -30 0 -30 0 -2 -237 c-2 -148 -7 -238
-13 -240 -6 -2 -21 15 -35 37 -14 22 -28 40 -32 40 -5 0 -8 5 -8 10 0 6 -16
26 -35 46 -19 19 -35 38 -35 43 0 4 -9 19 -21 32 -84 98 -139 167 -139 174 0
4 -13 19 -28 33 -16 15 -31 35 -35 45 -7 20 -55 24 -62 4z"/>
<path d="M13931 608 c-104 -50 -151 -115 -172 -237 -9 -51 -8 -70 5 -114 32
-99 71 -157 129 -186 15 -8 27 -18 27 -23 0 -4 14 -8 30 -8 17 0 30 -4 30 -10
0 -14 162 -13 210 2 22 7 40 16 40 20 0 5 7 8 16 8 16 0 54 36 54 50 0 4 -7
13 -15 20 -11 9 -21 9 -45 -1 -16 -8 -30 -17 -30 -21 0 -5 -9 -8 -20 -8 -11 0
-20 -4 -20 -10 0 -13 -167 -13 -175 0 -3 6 -14 10 -24 10 -25 0 -103 77 -124
122 -47 101 -27 209 54 288 28 28 59 50 69 50 11 0 22 5 25 10 3 6 44 10 91
10 49 0 84 -4 84 -10 0 -5 9 -10 20 -10 11 0 20 -3 20 -8 0 -4 14 -13 30 -21
24 -10 34 -10 45 -1 8 7 15 16 15 20 0 14 -38 50 -54 50 -9 0 -16 3 -16 8 0
15 -82 32 -157 32 -67 0 -87 -5 -142 -32z"/>
<path d="M14690 330 l0 -310 220 0 220 0 0 30 0 30 -184 0 -183 0 -7 88 c-4
49 -4 101 -1 115 l7 27 155 0 154 0 -3 28 -3 27 -155 5 -155 5 -3 103 -3 102
181 0 180 0 0 30 0 30 -210 0 -210 0 0 -310z"/>
</g>
</svg>
