<?xml version="1.0" standalone="no"?>
<!DOCTYPE svg PUBLIC "-//W3C//DTD SVG 20010904//EN"
 "http://www.w3.org/TR/2001/REC-SVG-20010904/DTD/svg10.dtd">
<svg version="1.0" xmlns="http://www.w3.org/2000/svg"
 width="1888.000000pt" height="512.000000pt" viewBox="0 0 1888.000000 512.000000"
 preserveAspectRatio="xMidYMid meet">

<g transform="translate(0.000000,512.000000) scale(0.100000,-0.100000)"
fill="#000000" stroke="none">
<path d="M6165 5104 c-235 -22 -408 -61 -550 -123 -11 -5 -38 -17 -60 -26 -88
-38 -218 -106 -251 -132 -5 -4 -19 -14 -30 -21 -62 -40 -81 -55 -142 -108
-107 -94 -212 -197 -212 -207 0 -5 -8 -17 -18 -26 -10 -9 -29 -32 -42 -51 -27
-38 -48 -65 -67 -85 -7 -8 -13 -16 -13 -20 0 -4 -13 -26 -29 -49 -40 -57 -115
-212 -141 -289 -11 -34 -25 -70 -30 -79 -6 -10 -10 -27 -10 -37 0 -11 -4 -22
-9 -25 -8 -5 -14 -29 -27 -116 -3 -19 -9 -44 -14 -55 -16 -36 -22 -126 -22
-325 0 -200 7 -298 23 -314 5 -6 9 -29 9 -52 0 -24 5 -46 10 -49 6 -3 10 -22
10 -41 0 -19 5 -34 10 -34 6 0 10 -13 10 -30 0 -16 5 -30 10 -30 6 0 10 -8 10
-18 0 -38 104 -270 147 -328 13 -17 23 -34 23 -38 0 -4 9 -16 20 -28 11 -12
20 -28 20 -35 0 -7 5 -13 10 -13 6 0 10 -6 10 -14 0 -8 4 -16 8 -18 4 -1 23
-23 42 -48 71 -92 159 -184 229 -240 24 -19 54 -45 67 -58 13 -12 26 -22 30
-22 3 0 20 -11 38 -25 40 -33 45 -37 81 -60 46 -30 238 -125 252 -125 7 0 13
-4 13 -10 0 -5 11 -10 24 -10 14 0 28 -5 31 -10 3 -5 15 -10 26 -10 10 0 19
-4 19 -10 0 -5 11 -10 25 -10 14 0 33 -4 43 -9 9 -5 35 -14 57 -19 22 -6 58
-15 80 -21 22 -5 92 -17 155 -27 126 -18 367 -15 490 6 95 16 233 51 244 61 6
5 20 9 32 9 13 0 26 5 29 10 3 6 17 10 31 10 13 0 24 5 24 10 0 6 7 10 16 10
15 0 229 102 279 133 34 21 120 80 125 87 3 3 21 17 40 30 19 13 42 32 51 42
9 10 20 18 24 18 9 0 102 95 180 184 33 38 66 75 73 82 6 7 12 17 12 22 0 5 9
17 20 27 11 10 20 22 20 28 0 5 9 22 20 37 11 16 33 52 49 82 16 29 40 73 53
98 124 226 204 627 177 889 -24 244 -91 496 -170 646 -14 28 -37 70 -50 95
-13 25 -26 47 -29 50 -3 3 -12 19 -20 35 -8 17 -25 41 -38 55 -12 14 -25 33
-28 43 -3 9 -9 17 -14 17 -5 0 -11 9 -15 19 -6 21 -252 273 -300 309 -16 12
-51 38 -77 57 -26 19 -51 35 -56 35 -5 0 -15 7 -22 15 -7 8 -37 27 -69 42 -31
15 -58 30 -61 33 -3 3 -16 10 -30 16 -14 6 -54 26 -90 43 -103 49 -265 97
-400 120 -124 20 -317 32 -395 25z m411 -309 c95 -21 169 -43 249 -74 37 -15
160 -75 165 -80 3 -3 25 -17 50 -30 25 -13 56 -34 71 -47 14 -13 30 -24 35
-24 6 0 23 -13 39 -30 16 -16 32 -30 37 -30 9 0 158 -145 158 -155 0 -3 6 -12
13 -19 63 -65 137 -165 137 -185 0 -6 4 -11 8 -11 10 0 97 -173 107 -213 4
-15 11 -30 16 -33 5 -3 9 -15 9 -28 0 -12 4 -26 9 -31 4 -6 16 -44 26 -85 10
-41 21 -88 26 -104 5 -16 9 -53 9 -82 0 -29 5 -56 10 -59 6 -4 10 -63 10 -146
0 -86 -4 -139 -10 -139 -6 0 -10 -28 -10 -64 0 -36 -4 -68 -10 -71 -5 -3 -10
-19 -10 -34 0 -61 -126 -402 -159 -431 -3 -3 -12 -16 -20 -30 -63 -115 -339
-420 -379 -420 -5 0 -15 -7 -22 -15 -7 -8 -49 -37 -94 -64 -121 -73 -155 -91
-171 -91 -8 0 -15 -4 -15 -10 0 -5 -9 -10 -20 -10 -11 0 -28 -4 -38 -9 -28
-14 -66 -29 -92 -36 -14 -3 -41 -11 -60 -16 -124 -34 -243 -49 -384 -49 -136
0 -299 18 -366 40 -14 4 -45 13 -70 20 -25 6 -52 15 -60 19 -8 4 -36 14 -62
22 -27 7 -48 17 -48 21 0 4 -9 8 -20 8 -11 0 -20 5 -20 10 0 6 -9 10 -20 10
-11 0 -20 3 -20 8 0 4 -23 18 -51 32 -28 13 -55 30 -61 37 -6 7 -16 13 -23 13
-6 0 -20 9 -30 20 -10 11 -24 20 -32 20 -7 0 -13 4 -13 8 0 4 -15 16 -32 27
-37 21 -210 191 -248 244 -14 18 -33 43 -43 54 -9 11 -17 24 -17 28 0 4 -6 14
-12 21 -22 23 -36 49 -94 168 -32 63 -61 123 -65 132 -5 10 -9 27 -9 38 0 11
-4 20 -10 20 -5 0 -10 13 -10 29 0 17 -4 33 -10 36 -5 3 -10 21 -10 40 0 19
-4 36 -9 39 -26 16 -36 481 -13 596 7 36 16 82 19 103 3 20 9 37 14 37 5 0 9
9 9 20 0 28 23 100 32 100 5 0 8 7 8 17 0 21 85 195 122 250 15 23 28 46 28
52 0 6 4 11 8 11 4 0 16 14 26 32 46 77 317 338 352 338 4 0 16 7 26 17 21 19
56 40 81 49 9 3 17 10 17 15 0 5 7 9 15 9 8 0 15 5 15 10 0 6 9 10 20 10 11 0
20 3 20 8 0 4 15 12 33 19 260 93 325 110 477 123 144 12 339 2 466 -25z"/>
<path d="M490 5022 c0 -5 -9 -51 -20 -103 -12 -52 -41 -191 -65 -309 -45 -213
-58 -272 -75 -340 -10 -38 -18 -83 -27 -145 -3 -22 -9 -44 -14 -50 -5 -5 -9
-22 -9 -39 0 -16 -4 -43 -10 -60 -18 -58 -53 -216 -125 -561 -19 -93 -39 -188
-45 -210 -5 -22 -14 -65 -20 -95 -6 -30 -16 -69 -21 -86 -5 -17 -9 -44 -9 -62
0 -17 -4 -34 -10 -37 -5 -3 -10 -22 -10 -41 0 -20 -4 -44 -10 -54 -22 -41 -4
-50 96 -50 126 0 193 28 194 83 0 9 5 17 10 17 6 0 10 20 10 44 0 25 4 47 9
50 5 3 11 20 14 38 2 18 19 98 37 178 54 241 60 269 92 420 17 80 35 163 40
185 5 22 13 60 18 85 5 25 14 68 20 95 6 28 13 66 16 85 3 19 9 44 14 55 5 11
11 34 14 50 2 17 9 48 14 70 6 22 20 88 33 148 13 61 28 107 35 107 9 0 81
-103 93 -135 2 -5 17 -29 32 -52 16 -23 29 -46 29 -52 0 -6 3 -11 8 -11 4 0
12 -10 18 -23 34 -68 62 -118 75 -133 14 -17 33 -48 45 -74 4 -8 24 -40 44
-70 20 -30 43 -70 51 -87 8 -18 17 -33 21 -33 5 0 8 -4 8 -9 0 -6 14 -30 30
-54 17 -25 30 -48 30 -51 0 -3 16 -30 35 -60 19 -30 35 -59 35 -64 0 -5 9 -17
20 -27 11 -10 20 -22 20 -27 0 -4 15 -32 34 -61 45 -71 71 -114 96 -162 11
-22 41 -71 66 -110 25 -38 47 -78 51 -87 3 -10 9 -18 14 -18 5 0 9 -6 9 -13 0
-7 8 -22 18 -33 9 -10 26 -37 38 -59 33 -64 65 -118 85 -147 11 -14 19 -29 19
-32 0 -5 40 -68 57 -91 5 -5 15 -23 23 -38 20 -39 59 -76 87 -83 56 -14 143
24 143 63 0 7 4 13 9 13 5 0 11 8 14 18 7 21 38 72 55 91 8 8 18 24 23 35 11
24 20 38 69 116 19 30 42 69 50 85 8 17 23 39 33 49 9 11 17 26 17 33 0 7 3
13 8 13 4 0 13 15 21 33 8 17 33 59 55 92 23 33 48 74 56 90 8 17 17 32 20 35
8 8 70 111 70 116 0 3 18 32 40 64 22 32 40 61 40 64 0 3 25 44 55 91 30 46
55 87 55 89 0 2 18 34 40 70 22 36 40 70 40 76 0 5 5 10 10 10 6 0 10 7 10 15
0 8 5 15 10 15 6 0 10 5 10 10 0 6 16 33 35 60 19 27 35 52 35 54 0 3 22 41
50 86 27 45 50 84 50 86 0 3 13 25 30 49 17 24 30 48 30 54 0 6 5 11 10 11 6
0 10 5 10 11 0 17 60 99 73 99 7 0 21 -45 35 -118 12 -64 32 -157 43 -207 11
-49 22 -106 25 -125 3 -19 9 -44 14 -55 5 -11 11 -36 14 -55 6 -40 20 -113 35
-180 11 -51 29 -136 41 -195 18 -94 103 -507 122 -590 33 -150 39 -179 44
-215 3 -19 9 -44 14 -55 5 -11 11 -36 14 -55 7 -45 26 -143 65 -330 11 -52 43
-204 70 -338 28 -133 55 -250 60 -260 11 -20 47 -52 78 -69 14 -8 61 -13 122
-13 l99 0 -4 42 c-3 24 -9 59 -14 78 -11 39 -57 261 -95 450 -13 69 -36 179
-50 245 -14 66 -28 134 -31 150 -3 17 -10 39 -14 50 -5 11 -11 38 -14 60 -5
41 -17 105 -35 185 -6 25 -15 68 -20 95 -30 146 -144 696 -152 730 -5 22 -12
59 -16 83 -3 23 -10 45 -14 48 -5 3 -9 24 -9 48 0 23 -4 46 -9 51 -5 6 -11 28
-14 50 -7 47 -22 122 -36 185 -10 42 -21 95 -41 200 -5 25 -30 144 -55 265
-25 121 -49 234 -52 250 -9 46 -42 100 -73 118 -55 33 -190 11 -190 -30 0 -7
-4 -13 -8 -13 -5 0 -15 -12 -23 -27 -7 -16 -26 -47 -41 -70 -15 -23 -28 -46
-28 -51 0 -5 -8 -16 -17 -25 -10 -9 -27 -33 -38 -54 -11 -21 -22 -40 -25 -43
-3 -3 -16 -25 -29 -50 -14 -25 -27 -47 -30 -50 -3 -3 -13 -18 -21 -35 -8 -16
-17 -32 -20 -35 -5 -5 -12 -18 -44 -75 -6 -10 -17 -26 -24 -34 -8 -8 -18 -24
-23 -35 -14 -31 -33 -62 -49 -81 -8 -10 -22 -32 -30 -49 -19 -40 -72 -129 -80
-136 -4 -3 -9 -12 -13 -20 -6 -14 -31 -55 -68 -111 -35 -54 -79 -131 -79 -138
0 -5 -7 -14 -15 -21 -9 -7 -23 -29 -32 -49 -9 -20 -29 -55 -45 -78 -15 -23
-28 -46 -28 -52 0 -6 -4 -11 -10 -11 -5 0 -10 -5 -10 -12 0 -6 -11 -26 -25
-44 -14 -18 -25 -35 -25 -38 0 -3 -13 -25 -30 -49 -17 -25 -30 -50 -30 -56 0
-6 -4 -11 -10 -11 -5 0 -10 -5 -10 -10 0 -6 -12 -29 -27 -53 -15 -23 -33 -51
-39 -62 -44 -79 -60 -105 -88 -145 -17 -25 -40 -62 -49 -82 -10 -21 -23 -38
-28 -38 -13 0 -48 41 -49 56 0 5 -8 19 -17 30 -10 11 -23 29 -29 40 -6 10 -17
30 -25 44 -8 14 -16 27 -19 30 -3 3 -12 19 -20 35 -8 17 -27 49 -42 71 -16 23
-28 44 -28 47 0 3 -23 41 -50 84 -28 43 -53 86 -56 96 -4 9 -10 17 -15 17 -5
0 -9 4 -9 9 0 5 -21 45 -47 88 -27 43 -55 92 -63 108 -8 17 -28 50 -45 75 -16
25 -36 56 -42 68 -7 12 -19 32 -25 44 -7 12 -21 31 -30 42 -10 11 -18 26 -18
33 0 7 -3 13 -8 13 -4 0 -13 15 -21 33 -8 17 -17 34 -20 37 -3 3 -17 25 -30
50 -14 25 -27 47 -30 50 -3 3 -13 19 -21 35 -8 17 -29 51 -47 77 -18 26 -33
52 -33 58 0 5 -4 10 -10 10 -5 0 -10 7 -10 15 0 8 -4 15 -10 15 -5 0 -10 9
-10 20 0 11 -4 20 -8 20 -5 0 -14 16 -22 35 -8 19 -17 35 -20 35 -4 0 -18 21
-31 48 -13 26 -27 49 -30 52 -3 3 -14 21 -24 40 -9 19 -25 44 -35 55 -9 11
-23 35 -31 53 -8 17 -17 32 -21 32 -5 0 -8 7 -8 15 0 8 -4 15 -9 15 -5 0 -11
8 -14 18 -8 23 -40 76 -49 80 -5 2 -8 9 -8 15 0 28 -60 47 -151 47 -49 0 -89
-4 -89 -8z"/>
<path d="M8524 5004 c-9 -35 2 -148 17 -172 29 -46 31 -47 479 -53 451 -6 487
-9 615 -59 32 -12 120 -54 125 -60 3 -3 17 -11 32 -19 15 -7 43 -29 62 -47 20
-19 40 -34 45 -34 5 0 28 -22 52 -49 65 -72 79 -90 79 -101 0 -6 3 -10 8 -10
4 0 18 -21 32 -47 13 -27 28 -50 31 -53 10 -7 55 -145 70 -215 19 -88 17 -283
-5 -380 -10 -45 -40 -125 -69 -185 -46 -93 -63 -117 -155 -211 -57 -59 -116
-113 -131 -120 -14 -8 -28 -16 -31 -19 -13 -14 -161 -80 -214 -95 -114 -32
-263 -45 -533 -45 l-261 0 -31 -25 c-40 -34 -56 -84 -41 -128 7 -24 159 -183
529 -553 645 -644 668 -667 712 -682 39 -13 286 -17 307 -4 8 6 -162 183 -543
563 -305 305 -553 559 -552 564 2 6 69 13 154 17 150 7 304 34 361 64 15 8 32
14 37 14 11 0 177 80 185 90 3 3 17 11 33 19 15 8 27 18 27 23 0 4 5 8 11 8
29 0 190 157 266 258 34 46 114 194 155 287 47 108 73 398 48 539 -15 88 -55
217 -81 262 -10 19 -19 41 -19 49 0 8 -4 15 -10 15 -5 0 -10 9 -10 20 0 11 -4
20 -10 20 -5 0 -10 5 -10 11 0 6 -13 30 -30 54 -16 24 -30 46 -30 50 0 21
-197 215 -265 260 -53 35 -68 44 -155 86 -47 22 -93 45 -102 50 -10 5 -27 9
-37 9 -11 0 -22 4 -25 8 -5 8 -53 20 -164 42 -31 6 -239 10 -502 10 l-450 0
-6 -26z"/>
<path d="M12415 5021 c-11 -5 -27 -17 -36 -27 -18 -21 -59 -119 -59 -140 0 -8
-4 -14 -10 -14 -5 0 -10 -7 -10 -15 0 -8 -10 -37 -21 -63 -37 -82 -47 -105
-69 -162 -11 -30 -30 -74 -40 -97 -11 -24 -20 -48 -20 -53 0 -6 -9 -30 -20
-52 -11 -23 -20 -50 -20 -60 0 -10 -4 -18 -8 -18 -5 0 -15 -22 -22 -50 -7 -27
-17 -50 -22 -50 -4 0 -8 -9 -8 -19 0 -11 -4 -23 -10 -26 -5 -3 -10 -17 -10
-31 0 -13 -4 -24 -10 -24 -5 0 -10 -7 -10 -15 0 -8 -8 -29 -18 -47 -10 -18
-30 -67 -46 -108 -15 -41 -34 -89 -42 -107 -8 -17 -14 -35 -14 -40 -1 -4 -9
-26 -20 -48 -11 -22 -19 -44 -20 -48 0 -5 -7 -25 -16 -45 -9 -21 -21 -48 -26
-62 -6 -14 -14 -33 -19 -42 -5 -10 -9 -25 -9 -33 0 -8 -4 -15 -10 -15 -5 0
-10 -10 -10 -23 0 -13 -4 -27 -8 -32 -5 -6 -15 -26 -22 -45 -7 -19 -23 -57
-35 -85 -13 -27 -37 -88 -55 -135 -17 -47 -40 -104 -51 -127 -10 -24 -19 -47
-19 -53 0 -6 -4 -18 -9 -28 -5 -9 -13 -28 -19 -42 -5 -14 -21 -50 -35 -80 -27
-60 -97 -236 -97 -246 0 -3 -11 -30 -25 -60 -14 -30 -25 -58 -25 -62 0 -5 -9
-27 -20 -50 -11 -22 -20 -48 -20 -56 0 -8 -4 -18 -10 -21 -5 -3 -10 -15 -10
-26 0 -10 -4 -19 -10 -19 -5 0 -10 -9 -10 -20 0 -11 -9 -35 -20 -55 -11 -20
-20 -40 -20 -45 0 -5 -13 -38 -30 -73 -16 -36 -30 -68 -30 -72 0 -4 -6 -21
-14 -38 -29 -67 -76 -193 -76 -204 0 -7 -4 -13 -8 -13 -4 0 -14 -21 -21 -48
-8 -26 -17 -49 -21 -52 -4 -3 -10 -20 -13 -37 l-6 -33 108 0 c122 0 155 11
196 64 14 18 25 36 25 39 0 3 13 34 29 69 15 35 38 92 51 128 13 36 34 89 47
118 12 29 23 56 23 60 0 5 9 27 20 50 11 22 20 48 20 56 0 8 5 18 10 21 6 3
10 15 10 26 0 10 5 19 10 19 6 0 10 9 10 20 0 11 8 34 18 52 10 18 30 67 46
108 15 41 34 89 41 105 7 17 30 73 50 125 21 52 46 114 56 137 10 24 19 50 19
58 0 8 5 15 10 15 6 0 10 6 10 14 0 7 9 35 21 62 11 27 27 65 35 84 9 19 19
44 24 55 6 11 23 58 40 105 17 47 40 104 50 127 11 24 20 50 20 58 0 8 5 15
10 15 6 0 10 11 10 25 0 14 5 25 10 25 6 0 10 9 10 20 0 11 8 34 18 52 10 18
35 78 57 133 21 55 42 104 47 110 4 5 8 18 8 30 0 12 4 25 8 30 5 6 19 37 32
70 12 33 31 79 41 102 11 24 19 50 19 58 0 8 5 15 10 15 6 0 10 7 10 15 0 8 4
23 9 33 5 9 13 28 18 42 12 30 23 56 57 133 14 32 26 62 26 67 0 6 5 19 10 30
6 11 15 29 20 40 6 11 10 25 10 30 0 6 9 30 20 52 11 23 20 50 20 60 0 10 5
18 10 18 6 0 10 9 10 20 0 11 6 20 13 20 12 0 37 -44 37 -67 0 -7 5 -13 10
-13 6 0 10 -7 10 -15 0 -8 4 -23 9 -33 5 -9 17 -35 26 -57 10 -22 23 -53 31
-69 8 -16 14 -33 14 -37 0 -8 44 -107 76 -173 8 -16 14 -35 14 -43 0 -7 5 -13
10 -13 6 0 10 -6 10 -13 0 -8 6 -27 14 -43 24 -50 54 -118 76 -174 12 -29 29
-72 39 -94 11 -23 33 -75 50 -116 18 -41 36 -79 42 -85 5 -5 9 -19 9 -32 0
-13 5 -23 10 -23 6 0 10 -9 10 -20 0 -11 5 -20 10 -20 6 0 10 -9 10 -19 0 -11
5 -23 10 -26 6 -3 10 -13 10 -21 0 -8 15 -47 34 -87 19 -40 37 -83 41 -97 8
-27 50 -125 65 -152 27 -49 36 -48 -363 -48 -378 0 -427 -4 -427 -37 0 -7 -4
-13 -9 -13 -19 0 -32 -60 -29 -141 l3 -84 624 -3 c344 -1 629 2 633 6 4 4 -5
35 -20 68 -28 56 -45 95 -76 167 -8 17 -23 53 -34 78 -12 25 -31 70 -42 100
-12 30 -28 68 -35 84 -7 17 -30 68 -50 115 -20 47 -41 89 -46 95 -5 5 -9 19
-9 32 0 13 -4 23 -10 23 -5 0 -10 9 -10 20 0 11 -4 20 -10 20 -5 0 -10 7 -10
15 0 8 -4 23 -9 33 -5 9 -16 33 -24 52 -8 19 -24 56 -36 82 -12 26 -21 50 -21
53 0 3 -11 31 -25 61 -14 30 -25 57 -25 59 0 5 -64 147 -81 177 -5 10 -9 25
-9 33 0 8 -4 15 -10 15 -5 0 -10 9 -10 19 0 11 -4 23 -10 26 -5 3 -10 15 -10
26 0 10 -4 19 -10 19 -5 0 -10 9 -10 19 0 17 -12 46 -51 123 -5 10 -9 22 -9
28 0 6 -16 45 -36 88 -54 118 -71 154 -87 192 -8 19 -21 51 -30 70 -8 19 -23
55 -34 80 -38 94 -69 145 -93 157 -28 14 -213 17 -245 4z"/>
<path d="M13970 5017 c-13 -7 -35 -28 -48 -47 -20 -30 -22 -44 -20 -120 l3
-85 1002 0 1003 0 35 35 c31 31 35 42 41 106 4 40 4 84 0 98 l-6 26 -993 0
c-773 0 -997 -3 -1017 -13z"/>
<path d="M17212 5002 c-18 -17 -42 -52 -53 -79 -12 -26 -32 -72 -45 -101 -13
-29 -24 -56 -24 -61 0 -4 -6 -21 -14 -37 -8 -16 -22 -47 -31 -69 -10 -22 -33
-73 -51 -112 -19 -40 -34 -75 -34 -78 0 -2 -13 -33 -30 -67 -16 -34 -30 -66
-30 -73 0 -6 -13 -37 -30 -70 -16 -33 -30 -68 -30 -77 0 -9 -4 -20 -10 -23 -5
-3 -10 -15 -10 -26 0 -10 -4 -19 -10 -19 -5 0 -10 -9 -10 -20 0 -11 -4 -20
-10 -20 -5 0 -10 -7 -10 -15 0 -8 -11 -38 -24 -67 -13 -29 -34 -75 -45 -103
-12 -27 -30 -68 -41 -90 -10 -22 -24 -56 -31 -75 -12 -36 -63 -151 -80 -182
-5 -10 -9 -25 -9 -33 0 -8 -4 -15 -10 -15 -5 0 -10 -11 -10 -25 0 -14 -4 -25
-10 -25 -5 0 -10 -7 -10 -15 0 -8 -4 -23 -9 -33 -17 -30 -81 -172 -81 -177 0
-2 -11 -29 -25 -59 -14 -30 -25 -58 -25 -61 0 -3 -9 -27 -21 -53 -12 -26 -28
-63 -36 -82 -8 -19 -19 -43 -24 -52 -5 -10 -9 -25 -9 -33 0 -8 -4 -15 -8 -15
-11 0 -32 -67 -24 -74 3 -3 283 -6 622 -6 542 0 619 2 630 15 16 19 7 163 -12
197 -39 68 -36 68 -453 68 -206 0 -375 3 -375 6 0 3 11 30 25 60 14 30 25 60
25 67 0 7 14 39 30 72 17 33 30 67 30 77 0 10 5 18 10 18 6 0 10 9 10 20 0 11
5 20 10 20 6 0 10 7 10 15 0 8 4 23 9 33 5 9 18 37 29 62 11 25 32 71 46 102
14 31 26 59 26 62 0 3 11 30 25 60 14 30 25 58 25 61 0 3 9 27 21 53 12 26 28
63 36 82 9 19 31 67 49 106 19 39 34 73 34 77 0 4 14 35 30 69 17 34 30 65 30
70 0 4 14 37 30 73 17 36 30 70 30 75 0 5 9 25 20 45 11 20 20 42 20 50 0 8 5
15 10 15 6 0 10 7 10 15 0 20 49 125 59 125 9 0 51 -90 51 -111 0 -8 4 -19 8
-25 5 -5 23 -47 41 -94 18 -47 44 -110 58 -140 14 -30 30 -66 35 -80 6 -14 14
-33 19 -42 5 -10 9 -22 9 -28 0 -6 9 -29 19 -53 11 -23 34 -80 51 -127 18 -47
38 -99 46 -117 8 -17 14 -34 14 -37 0 -3 14 -34 30 -68 17 -34 30 -70 30 -80
0 -10 5 -18 10 -18 6 0 10 -7 10 -15 0 -8 9 -34 19 -58 10 -23 26 -62 36 -87
9 -25 23 -58 30 -75 7 -16 35 -86 61 -155 27 -69 56 -140 66 -158 10 -18 18
-41 18 -52 0 -11 5 -20 10 -20 6 0 10 -7 10 -15 0 -8 4 -23 9 -33 5 -9 14 -30
21 -47 7 -16 16 -38 21 -47 5 -10 9 -22 9 -28 0 -6 8 -29 19 -53 10 -23 29
-69 41 -102 13 -33 26 -64 30 -70 4 -5 13 -28 20 -50 12 -38 51 -130 71 -167
5 -10 9 -27 9 -38 0 -11 5 -20 10 -20 6 0 10 -9 10 -20 0 -11 5 -20 10 -20 6
0 10 -10 10 -23 0 -13 4 -27 9 -33 5 -5 18 -36 30 -69 12 -33 26 -69 31 -80
26 -58 100 -252 100 -263 0 -7 5 -12 10 -12 6 0 10 -7 10 -15 0 -8 4 -23 9
-33 5 -9 15 -30 22 -47 18 -39 29 -49 73 -74 31 -18 54 -21 146 -21 68 0 110
4 110 10 0 6 -10 32 -21 58 -12 26 -30 66 -40 89 -11 24 -19 50 -19 58 0 8 -4
15 -10 15 -5 0 -10 6 -10 13 0 11 -47 137 -76 204 -8 17 -14 34 -14 38 0 9
-56 140 -81 188 -10 22 -19 47 -19 57 0 11 -4 22 -10 25 -5 3 -10 15 -10 26 0
10 -4 19 -8 19 -5 0 -15 22 -22 50 -7 27 -17 50 -22 50 -4 0 -8 5 -8 12 0 11
-80 223 -116 308 -9 19 -19 44 -23 55 -5 11 -18 40 -30 63 -11 24 -21 52 -21
63 0 10 -3 19 -8 19 -4 0 -13 19 -20 42 -7 23 -22 59 -33 82 -10 22 -19 44
-19 48 0 5 -9 28 -20 50 -11 23 -20 49 -20 58 0 9 -4 20 -8 26 -5 5 -23 47
-41 94 -18 47 -44 110 -58 140 -14 30 -30 66 -35 80 -6 14 -14 33 -19 42 -5
10 -9 22 -9 28 0 5 -11 33 -24 62 -13 29 -27 64 -31 78 -4 14 -15 43 -25 65
-10 22 -35 83 -55 135 -21 52 -42 99 -47 105 -4 5 -8 19 -8 32 0 13 -4 23 -10
23 -5 0 -10 9 -10 19 0 11 -4 23 -10 26 -5 3 -10 17 -10 31 0 13 -4 24 -10 24
-5 0 -10 9 -10 19 0 11 -4 23 -10 26 -5 3 -10 13 -10 20 0 8 -11 39 -25 69
-14 30 -25 58 -25 61 0 4 -6 21 -14 38 -8 18 -26 62 -40 100 -14 37 -35 89
-47 115 -12 26 -26 58 -31 72 -6 14 -14 33 -19 42 -5 10 -9 25 -9 33 0 8 -4
15 -10 15 -5 0 -10 6 -10 13 0 8 -12 24 -26 38 -23 22 -35 24 -138 27 l-112 4
-32 -30z"/>
<path d="M14910 4140 c-57 -16 -70 -23 -70 -36 0 -8 -4 -14 -10 -14 -5 0 -10
-9 -10 -20 0 -11 -4 -20 -10 -20 -11 0 -15 -2376 -4 -2404 5 -13 22 -16 79
-16 87 0 135 18 169 63 l26 34 0 1205 c0 1090 -2 1206 -16 1212 -21 8 -122 6
-154 -4z"/>
<path d="M3375 626 c-84 -31 -170 -116 -196 -193 -18 -55 -16 -150 5 -211 26
-76 112 -163 186 -187 81 -27 181 -24 250 8 70 32 98 60 80 82 -17 20 -37 19
-61 -3 -47 -45 -165 -55 -253 -22 -97 37 -150 118 -150 230 0 112 53 193 150
230 88 33 206 23 253 -22 24 -22 44 -23 61 -3 18 21 -9 50 -77 81 -44 20 -68
24 -136 23 -45 -1 -96 -6 -112 -13z"/>
<path d="M4103 633 c-10 -3 -13 -74 -13 -303 0 -262 2 -299 16 -304 20 -8 378
-8 398 0 9 3 16 14 16 24 0 10 -7 21 -16 24 -9 3 -87 6 -175 6 l-159 0 0 280
0 280 -27 -1 c-16 0 -34 -3 -40 -6z"/>
<path d="M4853 633 c-10 -3 -13 -49 -13 -181 1 -169 10 -242 38 -312 15 -38
82 -96 127 -111 50 -16 150 -15 200 1 43 14 105 66 105 87 0 7 5 13 10 13 6 0
10 9 10 20 0 11 5 20 10 20 6 0 10 85 10 236 l0 235 -27 -3 -28 -3 -5 -229
c-4 -169 -9 -231 -18 -234 -6 -2 -12 -9 -12 -16 0 -14 -32 -44 -67 -63 -30
-17 -133 -16 -174 1 -42 18 -73 51 -88 95 -7 21 -11 113 -11 242 l0 209 -27
-1 c-16 0 -34 -3 -40 -6z"/>
<path d="M5800 330 l0 -310 165 0 c189 0 251 10 292 48 42 38 53 63 53 121 0
68 -31 121 -81 136 -24 8 -24 20 -1 37 19 14 62 98 62 122 0 8 -4 18 -10 21
-5 3 -10 16 -10 29 0 29 -33 60 -93 85 -43 18 -69 21 -213 21 l-164 0 0 -310z
m320 250 c0 -5 10 -10 23 -10 28 -1 57 -22 57 -44 0 -9 5 -16 10 -16 6 0 10
-18 10 -40 0 -22 -4 -40 -10 -40 -5 0 -10 -6 -10 -12 0 -7 -15 -22 -33 -32
-26 -16 -57 -20 -164 -24 l-133 -4 0 116 0 116 125 0 c77 0 125 -4 125 -10z
m65 -290 c45 -17 55 -34 55 -96 0 -46 -4 -60 -22 -76 -38 -33 -64 -38 -209
-38 l-139 0 0 110 0 110 144 0 c80 0 157 -5 171 -10z"/>
<path d="M6705 628 c-3 -7 -4 -146 -3 -308 l3 -295 223 -3 222 -2 0 30 0 30
-185 0 -185 0 0 110 0 110 148 0 c152 0 172 5 172 41 0 26 -20 29 -176 29
l-144 0 0 105 0 105 178 2 177 3 0 25 0 25 -213 3 c-165 2 -214 0 -217 -10z"/>
<path d="M8023 633 c-10 -4 -13 -74 -13 -304 l0 -299 24 -6 c56 -14 61 -6 64
94 l3 92 107 0 107 0 33 -53 c18 -28 38 -61 45 -71 29 -47 52 -66 79 -66 21 0
28 5 28 20 0 11 -3 20 -7 20 -5 0 -19 17 -33 38 -13 20 -37 54 -53 74 -29 38
-30 78 -3 78 18 0 71 60 85 97 17 43 15 131 -3 168 -23 47 -76 91 -130 109
-37 12 -85 16 -185 15 -75 0 -142 -3 -148 -6z m296 -64 c38 -8 58 -20 82 -46
29 -34 31 -40 27 -104 -6 -113 -46 -139 -218 -139 l-110 0 0 150 0 150 85 0
c46 0 107 -5 134 -11z"/>
<path d="M8900 330 l0 -310 223 2 222 3 0 25 0 25 -187 3 -188 2 0 110 0 109
158 3 157 3 3 24 c2 13 -2 28 -10 32 -7 5 -79 9 -160 9 l-148 0 0 105 0 105
178 2 177 3 3 28 3 27 -215 0 -216 0 0 -310z"/>
<path d="M9796 620 c-58 -29 -82 -56 -96 -105 -10 -34 -10 -51 0 -82 23 -69
65 -99 185 -128 88 -21 123 -33 158 -57 23 -16 27 -27 27 -64 0 -72 -49 -104
-159 -104 -71 0 -181 31 -181 51 0 17 -29 9 -40 -12 -39 -73 211 -133 345 -83
68 25 105 80 105 155 0 42 -5 53 -37 87 -28 29 -54 44 -98 57 -226 66 -235 71
-235 146 0 58 25 82 102 98 41 9 63 8 117 -5 36 -9 72 -21 79 -26 15 -13 42 7
42 31 0 51 -235 82 -314 41z"/>
<path d="M10530 330 l0 -311 33 3 32 3 0 305 0 305 -32 3 -33 3 0 -311z"/>
<path d="M11045 627 c-3 -7 -4 -145 -3 -307 l3 -295 135 -3 c190 -5 270 14
341 80 71 66 99 129 99 228 0 151 -77 249 -231 299 -51 16 -338 15 -344 -2z
m285 -47 c0 -5 18 -10 40 -10 22 0 40 -4 40 -10 0 -5 7 -10 16 -10 21 0 78
-57 103 -103 17 -30 21 -55 21 -122 0 -50 -4 -85 -10 -85 -5 0 -10 -7 -10 -15
0 -23 -42 -84 -62 -91 -10 -3 -18 -9 -18 -13 0 -12 -48 -31 -80 -31 -16 0 -32
-4 -35 -10 -4 -6 -55 -10 -121 -10 l-114 0 0 260 0 260 115 0 c70 0 115 -4
115 -10z"/>
<path d="M12010 330 l0 -310 218 2 217 3 0 25 0 25 -182 3 -183 2 0 110 0 110
154 0 c98 0 157 4 161 11 4 5 4 21 1 35 l-6 24 -155 0 -155 0 0 105 0 105 180
0 180 0 0 30 0 30 -215 0 -215 0 0 -310z"/>
<path d="M12855 628 c-2 -7 -6 -145 -7 -305 -3 -314 -5 -303 48 -303 l24 0 0
235 c0 129 4 235 8 235 9 0 102 -105 102 -114 0 -6 18 -29 63 -79 16 -18 39
-49 52 -69 14 -20 44 -59 67 -86 24 -28 54 -66 68 -86 20 -30 30 -36 55 -34
l30 3 0 305 0 305 -32 3 -33 3 0 -240 c0 -186 -3 -241 -12 -241 -7 1 -29 24
-48 52 -19 28 -56 75 -82 104 -27 30 -48 58 -48 62 0 4 -15 24 -32 43 -43 46
-98 116 -98 124 0 4 -16 23 -35 43 -19 20 -35 40 -35 45 0 12 -50 8 -55 -5z"/>
<path d="M13930 607 c-65 -31 -110 -67 -110 -87 0 -5 -3 -10 -8 -10 -4 0 -13
-15 -20 -32 -7 -18 -18 -41 -23 -50 -12 -24 -12 -185 1 -193 6 -3 10 -15 10
-26 0 -10 5 -19 10 -19 6 0 10 -7 10 -16 0 -8 13 -29 30 -47 16 -18 30 -35 30
-39 0 -5 6 -8 13 -8 8 0 22 -9 31 -19 17 -19 24 -21 124 -40 107 -20 262 31
262 86 0 36 -19 36 -83 3 -102 -53 -222 -39 -300 34 -69 65 -77 84 -77 179 0
99 12 128 77 191 76 74 195 87 307 32 60 -29 76 -28 76 7 0 15 -11 30 -32 42
-58 35 -91 43 -178 44 -76 0 -92 -3 -150 -32z"/>
<path d="M14685 628 c-3 -7 -4 -146 -3 -308 l3 -295 223 -3 222 -2 0 30 0 30
-185 0 -185 0 0 110 0 110 148 0 c152 0 172 5 172 41 0 26 -20 29 -176 29
l-144 0 0 105 0 105 178 2 177 3 0 25 0 25 -213 3 c-165 2 -214 0 -217 -10z"/>
</g>
</svg>
