<?xml version="1.0" standalone="no"?>
<!DOCTYPE svg PUBLIC "-//W3C//DTD SVG 20010904//EN"
 "http://www.w3.org/TR/2001/REC-SVG-20010904/DTD/svg10.dtd">
<svg version="1.0" xmlns="http://www.w3.org/2000/svg"
 width="1888.000000pt" height="512.000000pt" viewBox="0 0 1888.000000 512.000000"
 preserveAspectRatio="xMidYMid meet">

<g transform="translate(0.000000,512.000000) scale(0.100000,-0.100000)"
fill="#000000" stroke="none">
<path d="M6115 5099 c-139 -10 -215 -21 -221 -30 -3 -5 -23 -9 -44 -9 -21 0
-42 -4 -45 -10 -3 -5 -19 -10 -34 -10 -15 0 -31 -4 -37 -8 -5 -4 -27 -14 -49
-21 -22 -7 -49 -16 -60 -20 -42 -17 -260 -124 -265 -131 -3 -4 -20 -13 -37
-21 -18 -8 -33 -17 -33 -21 0 -5 -7 -8 -15 -8 -8 0 -15 -4 -15 -10 0 -5 -7
-10 -15 -10 -8 0 -15 -3 -15 -7 0 -5 -17 -19 -37 -33 -33 -22 -57 -42 -153
-130 -15 -14 -39 -34 -53 -45 -15 -11 -27 -24 -27 -30 0 -6 -17 -28 -37 -50
-49 -52 -150 -187 -165 -220 -6 -14 -14 -25 -18 -25 -3 0 -12 -16 -20 -35 -8
-19 -17 -35 -22 -35 -4 0 -8 -9 -8 -20 0 -11 -4 -20 -10 -20 -5 0 -10 -9 -10
-20 0 -11 -4 -20 -10 -20 -5 0 -10 -9 -10 -20 0 -11 -4 -20 -10 -20 -5 0 -10
-9 -10 -20 0 -11 -4 -28 -9 -38 -28 -56 -62 -158 -86 -260 -9 -37 -20 -83 -25
-102 -4 -19 -14 -98 -20 -176 -22 -248 19 -524 111 -751 5 -13 13 -33 18 -45
4 -13 18 -43 30 -66 11 -24 21 -52 21 -63 0 -10 5 -19 10 -19 6 0 10 -7 10
-15 0 -8 4 -15 8 -15 5 0 14 -16 22 -35 8 -19 17 -35 22 -35 4 0 8 -5 8 -11 0
-12 46 -80 84 -124 14 -16 26 -34 26 -38 0 -5 14 -22 30 -37 17 -15 30 -31 30
-35 0 -10 138 -146 214 -210 32 -27 64 -56 72 -62 7 -7 17 -13 21 -13 5 0 18
-8 29 -17 25 -23 74 -53 97 -60 9 -3 17 -9 17 -14 0 -5 7 -9 15 -9 8 0 15 -4
15 -10 0 -5 9 -10 20 -10 11 0 20 -4 20 -10 0 -5 7 -10 15 -10 8 0 29 -8 47
-18 99 -54 282 -115 418 -141 159 -29 204 -33 375 -28 193 5 267 14 385 46 41
11 86 23 100 26 14 4 34 10 45 15 11 4 36 14 55 21 61 21 304 143 324 161 11
10 23 18 28 18 4 0 16 6 25 14 10 8 50 38 88 67 67 50 285 259 285 272 0 7 21
34 55 71 19 21 26 32 58 88 6 13 15 25 18 28 4 3 24 37 45 75 21 39 42 72 46
73 4 2 8 12 8 22 0 10 5 22 10 25 6 3 10 15 10 26 0 10 5 19 10 19 6 0 10 9
10 19 0 11 5 23 10 26 6 3 10 17 10 31 0 13 5 24 10 24 6 0 10 11 10 24 0 14
5 28 10 31 6 3 10 21 10 40 0 19 4 36 9 39 5 3 11 20 14 38 3 18 11 56 16 83
34 161 42 372 22 540 -7 55 -14 120 -18 145 -3 25 -9 49 -14 55 -5 5 -9 26 -9
47 0 21 -4 38 -10 38 -5 0 -10 13 -10 29 0 17 -4 33 -10 36 -5 3 -10 17 -10
30 0 13 -4 27 -10 30 -5 3 -10 17 -10 31 0 13 -4 24 -10 24 -5 0 -10 8 -10 19
0 32 -128 266 -172 315 -10 11 -18 25 -18 31 0 6 -9 17 -20 25 -11 8 -20 19
-20 25 -1 23 -199 235 -220 235 -5 0 -10 7 -10 15 0 8 -4 15 -9 15 -5 0 -26
16 -47 36 -22 19 -51 43 -66 52 -16 9 -28 20 -28 24 0 4 -7 8 -15 8 -8 0 -15
5 -15 10 0 6 -7 10 -15 10 -8 0 -15 5 -15 10 0 6 -6 10 -13 10 -7 0 -23 9 -35
20 -12 11 -28 20 -37 20 -8 0 -15 5 -15 10 0 6 -9 10 -20 10 -11 0 -20 3 -20
8 0 4 -15 13 -32 21 -18 8 -64 29 -102 48 -38 18 -77 33 -87 33 -10 0 -21 5
-24 10 -3 6 -17 10 -30 10 -13 0 -27 5 -30 10 -3 6 -19 10 -35 10 -16 0 -31 4
-34 9 -3 5 -23 11 -43 15 -21 3 -65 10 -98 16 -69 12 -271 29 -330 27 -22 0
-80 -4 -130 -8z m315 -284 c41 -3 91 -10 110 -15 19 -5 62 -14 95 -21 33 -7
64 -16 69 -21 6 -4 20 -8 32 -8 13 0 26 -4 29 -10 3 -5 15 -10 25 -10 24 0
271 -127 278 -142 2 -5 8 -8 14 -8 5 0 15 -6 23 -12 30 -29 56 -48 65 -48 15
0 270 -258 270 -273 0 -7 9 -19 20 -27 11 -8 20 -18 20 -23 0 -4 5 -13 10 -20
6 -7 26 -37 45 -67 19 -30 39 -60 45 -67 5 -7 10 -19 10 -28 0 -8 5 -15 10
-15 6 0 10 -7 10 -15 0 -8 4 -23 9 -33 5 -9 14 -29 20 -44 6 -16 16 -40 22
-55 6 -16 15 -36 20 -45 5 -10 9 -29 9 -43 0 -14 4 -33 9 -43 13 -25 29 -104
42 -206 24 -190 -9 -534 -62 -638 -5 -10 -9 -27 -9 -37 0 -11 -4 -23 -10 -26
-5 -3 -10 -14 -10 -25 0 -31 -87 -200 -137 -265 -5 -5 -14 -22 -22 -37 -8 -16
-18 -28 -23 -28 -4 0 -8 -6 -8 -13 0 -7 -9 -19 -20 -27 -11 -8 -20 -18 -20
-22 0 -16 -102 -123 -181 -190 -24 -20 -55 -46 -69 -58 -14 -12 -37 -29 -52
-38 -16 -9 -28 -19 -28 -22 0 -4 -16 -12 -35 -20 -19 -8 -35 -17 -35 -22 0 -4
-5 -8 -11 -8 -6 0 -23 -8 -37 -18 -32 -22 -201 -96 -257 -112 -22 -6 -56 -16
-75 -22 -115 -33 -322 -48 -500 -37 -159 10 -251 27 -363 68 -56 20 -267 119
-277 130 -3 4 -17 12 -32 20 -16 8 -28 18 -28 23 0 4 -6 8 -12 8 -7 0 -26 11
-42 25 -16 14 -32 25 -36 25 -5 0 -59 51 -122 112 -113 112 -217 237 -241 291
-6 15 -15 27 -19 27 -5 0 -8 9 -8 20 0 11 -4 20 -10 20 -5 0 -10 9 -10 20 0
11 -3 20 -8 20 -4 0 -13 15 -20 33 -8 17 -17 41 -22 52 -4 11 -15 36 -23 55
-20 45 -64 196 -78 269 -17 85 -23 394 -9 476 20 119 78 315 111 377 5 10 9
25 9 33 0 8 5 15 10 15 6 0 10 6 10 14 0 19 42 96 52 96 4 0 8 9 8 20 0 11 5
20 10 20 6 0 10 5 10 12 0 15 56 90 108 144 23 24 42 47 42 52 0 17 214 211
233 212 4 0 17 9 29 20 12 11 28 20 35 20 7 0 13 4 13 8 0 14 248 142 275 142
7 0 17 5 20 10 3 6 17 10 30 10 13 0 27 5 30 10 3 6 19 10 35 10 16 0 32 5 35
10 3 6 26 10 50 10 24 0 47 5 50 10 3 6 32 10 63 11 31 0 80 5 107 9 49 8 121
7 275 -5z"/>
<path d="M493 5028 c-6 -7 -13 -31 -17 -53 -6 -39 -16 -87 -36 -182 -6 -27
-15 -68 -20 -93 -11 -55 -29 -140 -41 -200 -6 -25 -14 -65 -19 -90 -5 -25 -13
-63 -18 -85 -19 -81 -65 -281 -73 -322 -11 -54 -25 -115 -39 -173 -10 -43 -17
-76 -41 -192 -6 -29 -15 -73 -20 -98 -6 -25 -12 -58 -15 -75 -3 -16 -9 -46
-14 -65 -5 -19 -14 -62 -20 -95 -6 -33 -16 -76 -21 -95 -17 -69 -72 -316 -80
-365 -5 -29 -5 -53 1 -59 5 -5 60 -7 124 -4 114 4 115 4 144 36 19 20 34 51
41 84 7 29 16 69 21 88 5 19 14 62 20 95 7 33 16 70 21 83 5 13 9 38 9 57 0
19 4 36 9 39 4 3 11 25 15 48 3 24 10 64 16 91 5 26 14 66 19 90 13 60 31 145
41 197 5 25 13 63 19 85 5 22 21 94 36 160 41 185 46 207 56 250 6 22 15 63
20 90 6 28 15 70 21 95 5 25 12 62 15 83 7 51 25 48 53 -8 8 -16 17 -32 20
-35 3 -3 11 -15 18 -27 31 -57 38 -68 49 -80 6 -7 17 -26 25 -43 7 -16 16 -30
20 -30 5 0 8 -7 8 -15 0 -8 4 -15 8 -15 5 0 14 -16 22 -35 8 -19 16 -35 19
-35 4 0 12 -15 20 -32 8 -18 17 -35 20 -38 10 -8 42 -64 48 -82 3 -10 9 -18
14 -18 5 0 9 -5 9 -10 0 -12 52 -94 63 -98 4 -2 7 -10 7 -18 0 -8 9 -24 20
-36 11 -12 20 -28 20 -35 0 -7 5 -13 10 -13 6 0 10 -7 10 -15 0 -8 5 -15 10
-15 6 0 10 -9 10 -20 0 -11 5 -20 10 -20 6 0 10 -6 10 -14 0 -8 3 -16 8 -18 4
-1 16 -20 27 -40 11 -20 50 -86 88 -147 37 -61 67 -115 67 -121 0 -5 4 -10 8
-10 5 0 20 -21 33 -47 13 -27 27 -49 32 -51 4 -2 7 -8 7 -14 0 -5 14 -29 30
-53 17 -24 30 -46 30 -49 0 -5 37 -64 57 -91 18 -25 45 -71 50 -87 3 -10 8
-18 12 -18 4 0 13 -16 21 -35 8 -19 17 -35 22 -35 4 0 8 -7 8 -15 0 -9 9 -25
20 -37 11 -12 20 -28 20 -35 0 -7 5 -13 10 -13 6 0 10 -5 10 -10 0 -15 50 -91
75 -115 50 -48 83 -55 134 -29 30 15 92 89 121 144 7 14 16 27 19 30 6 5 17
24 45 75 6 11 13 22 16 25 3 3 12 19 20 35 8 17 17 32 20 35 3 3 10 14 16 25
22 39 39 69 47 79 5 6 18 27 30 46 11 19 36 59 54 89 18 29 33 57 33 62 0 5 5
9 10 9 6 0 10 6 10 13 0 7 9 23 20 35 11 12 20 28 20 37 0 8 4 15 9 15 5 0 11
8 15 18 8 24 101 178 116 192 9 9 41 65 47 83 3 9 8 17 12 17 4 0 13 16 21 35
8 19 17 35 22 35 4 0 8 6 8 13 0 7 9 23 20 35 11 12 20 28 20 37 0 8 5 15 10
15 6 0 10 4 10 9 0 8 94 166 117 196 17 23 45 71 50 88 3 9 8 17 12 17 4 0 13
16 21 35 8 19 17 35 22 35 4 0 8 6 8 13 0 7 9 23 20 35 11 12 20 26 20 32 0 6
5 16 10 23 16 19 61 88 85 132 33 58 52 57 58 -2 3 -26 11 -73 17 -103 6 -30
16 -74 21 -97 22 -105 28 -131 38 -183 6 -30 15 -73 20 -95 5 -22 23 -105 40
-185 17 -80 36 -161 41 -181 6 -20 10 -50 10 -66 0 -16 4 -33 9 -38 5 -6 11
-28 14 -50 6 -42 20 -114 37 -200 6 -27 15 -70 20 -95 5 -25 13 -65 19 -90 5
-25 14 -70 20 -100 6 -30 15 -73 20 -95 5 -22 19 -87 31 -145 12 -58 29 -134
37 -170 19 -85 29 -132 43 -205 7 -33 16 -80 21 -105 9 -43 16 -73 40 -192 5
-29 12 -71 16 -93 3 -22 9 -44 14 -49 5 -6 9 -29 9 -52 0 -24 5 -46 10 -49 6
-3 10 -19 10 -34 0 -36 22 -80 56 -112 24 -22 35 -24 146 -28 l121 -3 -7 48
c-4 27 -11 63 -15 79 -5 17 -14 57 -21 90 -6 33 -16 76 -21 96 -5 20 -9 50 -9
67 0 17 -4 34 -10 37 -5 3 -10 26 -10 50 0 24 -4 46 -9 49 -4 3 -11 27 -14 53
-4 27 -11 71 -17 98 -6 28 -15 70 -20 95 -8 41 -18 88 -40 195 -24 117 -62
287 -75 338 -8 32 -15 71 -15 87 0 16 -4 32 -10 35 -5 3 -10 26 -10 50 0 24
-4 46 -9 49 -4 3 -11 27 -14 53 -6 45 -15 95 -38 203 -6 25 -14 65 -19 90 -12
59 -29 144 -41 198 -5 23 -13 61 -18 85 -17 83 -31 144 -57 262 -38 175 -45
206 -51 250 -3 22 -9 44 -14 50 -5 5 -9 28 -9 51 0 24 -4 46 -10 49 -5 3 -10
28 -10 55 0 27 -4 52 -10 55 -5 3 -10 24 -10 45 0 21 -4 42 -10 45 -6 3 -10
26 -10 50 0 24 -5 47 -10 50 -6 3 -10 17 -10 30 0 42 -39 196 -55 218 -20 27
-85 57 -125 57 -64 0 -106 -31 -155 -115 -16 -27 -34 -56 -41 -63 -7 -6 -16
-21 -19 -32 -3 -11 -10 -20 -14 -20 -4 0 -13 -16 -21 -35 -8 -19 -17 -35 -22
-35 -4 0 -8 -7 -8 -15 0 -8 -4 -15 -10 -15 -5 0 -10 -9 -10 -20 0 -11 -4 -20
-10 -20 -5 0 -10 -7 -10 -15 0 -8 -4 -15 -10 -15 -5 0 -10 -9 -10 -20 0 -11
-4 -20 -8 -20 -5 0 -14 -11 -20 -25 -7 -14 -17 -31 -22 -38 -12 -13 -72 -112
-103 -169 -11 -21 -24 -38 -27 -38 -3 0 -12 -16 -20 -35 -8 -19 -17 -35 -22
-35 -4 0 -8 -7 -8 -15 0 -8 -4 -15 -10 -15 -5 0 -10 -9 -10 -20 0 -11 -4 -20
-10 -20 -5 0 -10 -7 -10 -15 0 -8 -3 -15 -8 -15 -4 0 -13 -14 -20 -30 -8 -17
-19 -36 -25 -43 -18 -18 -77 -117 -77 -128 0 -5 -4 -9 -10 -9 -5 0 -10 -9 -10
-20 0 -11 -4 -20 -10 -20 -5 0 -10 -7 -10 -15 0 -8 -4 -15 -10 -15 -5 0 -10
-7 -10 -15 0 -8 -3 -15 -7 -15 -5 0 -19 -23 -32 -50 -14 -28 -29 -50 -33 -50
-4 0 -8 -4 -8 -10 0 -5 -16 -34 -35 -64 -19 -30 -35 -60 -35 -66 0 -5 -4 -10
-9 -10 -5 0 -14 -13 -21 -30 -7 -16 -16 -30 -19 -30 -4 0 -13 -16 -21 -35 -8
-19 -17 -35 -22 -35 -4 0 -8 -9 -8 -20 0 -11 -4 -20 -10 -20 -5 0 -10 -7 -10
-15 0 -8 -4 -15 -10 -15 -5 0 -10 -7 -10 -15 0 -8 -3 -15 -7 -15 -5 0 -19 -23
-32 -50 -14 -28 -28 -50 -31 -50 -4 0 -15 -18 -26 -40 -10 -22 -22 -40 -26
-40 -5 0 -8 -7 -8 -15 0 -8 -4 -15 -10 -15 -5 0 -10 -6 -10 -13 0 -7 -9 -23
-20 -35 -11 -12 -20 -26 -20 -32 0 -12 -29 -45 -34 -39 -2 2 -14 24 -27 49
-13 25 -27 47 -30 50 -3 3 -19 28 -34 55 -16 28 -32 52 -35 55 -9 9 -41 64
-47 83 -3 9 -9 17 -14 17 -5 0 -9 7 -9 15 0 8 -4 15 -10 15 -5 0 -10 9 -10 20
0 11 -4 20 -10 20 -5 0 -10 7 -10 15 0 8 -3 15 -8 15 -4 0 -14 15 -22 33 -7
17 -18 37 -22 42 -19 22 -118 187 -118 196 0 5 -4 9 -10 9 -5 0 -10 9 -10 20
0 11 -4 20 -8 20 -5 0 -20 21 -33 48 -13 26 -27 49 -31 50 -5 2 -8 10 -8 18 0
8 -4 14 -9 14 -5 0 -11 8 -14 18 -4 9 -17 35 -31 57 -14 22 -33 54 -42 70 -9
17 -20 32 -24 35 -3 3 -17 25 -31 50 -13 25 -27 47 -30 50 -3 3 -12 20 -20 38
-8 17 -17 32 -21 32 -5 0 -8 7 -8 15 0 9 -9 25 -20 37 -11 12 -20 28 -20 35 0
7 -4 13 -10 13 -5 0 -10 4 -10 9 0 10 -100 175 -120 198 -5 7 -10 19 -10 28 0
8 -4 15 -10 15 -5 0 -10 7 -10 15 0 8 -4 15 -10 15 -5 0 -10 6 -10 14 0 8 -3
16 -7 18 -5 2 -19 26 -33 53 -14 28 -29 55 -33 60 -5 6 -18 26 -30 45 -11 19
-36 59 -54 89 -18 29 -33 55 -33 58 0 7 -45 47 -68 61 -12 7 -56 12 -101 12
-51 0 -82 -4 -88 -12z"/>
<path d="M8520 4946 c0 -89 2 -96 28 -123 15 -16 38 -33 52 -38 14 -5 219 -12
455 -16 420 -7 509 -12 521 -30 3 -5 16 -9 30 -9 13 0 24 -4 24 -10 0 -5 8
-10 18 -10 10 0 44 -16 76 -35 32 -19 62 -35 67 -35 5 0 9 -4 9 -10 0 -5 7
-10 15 -10 8 0 15 -4 15 -10 0 -5 5 -10 10 -10 18 0 157 -146 197 -207 21 -32
41 -59 46 -61 4 -2 7 -12 7 -23 0 -10 5 -19 10 -19 6 0 10 -9 10 -20 0 -11 5
-20 10 -20 6 0 10 -11 10 -24 0 -14 4 -27 9 -30 5 -3 11 -20 14 -38 4 -18 12
-64 19 -103 21 -119 17 -201 -18 -402 -4 -18 -10 -33 -15 -33 -5 0 -9 -7 -9
-15 0 -9 -14 -44 -31 -78 -85 -168 -234 -315 -404 -397 -38 -18 -78 -37 -87
-42 -10 -4 -28 -8 -41 -8 -13 0 -27 -4 -32 -9 -18 -17 -111 -23 -428 -27 -280
-4 -321 -7 -350 -23 -18 -9 -36 -27 -42 -39 -5 -12 -13 -22 -17 -22 -13 0 -9
-78 5 -102 6 -12 282 -291 612 -622 l600 -600 156 -4 c92 -3 164 0 174 5 15 9
-67 95 -539 567 -306 306 -554 561 -551 566 3 6 50 10 103 11 109 0 235 13
302 29 25 6 60 14 78 17 17 3 32 9 32 14 0 5 7 9 15 9 8 0 23 4 33 9 9 5 31
14 47 21 79 33 200 107 241 148 7 6 16 12 21 12 5 0 15 9 23 20 8 11 18 20 23
20 9 0 77 66 77 76 0 4 8 14 18 23 10 9 29 32 42 51 13 19 30 41 37 48 7 7 13
17 13 22 0 5 6 15 13 22 19 19 67 108 67 124 0 8 5 14 10 14 6 0 10 7 10 15 0
15 4 25 28 72 7 13 12 36 12 52 0 17 4 32 9 35 16 11 24 90 24 271 0 181 -8
281 -24 291 -5 3 -9 16 -9 29 0 13 -4 27 -10 30 -5 3 -10 16 -10 29 0 12 -4
26 -8 31 -5 6 -15 26 -22 45 -18 45 -81 154 -92 158 -4 2 -8 10 -8 18 0 8 -10
25 -22 38 -32 33 -58 65 -58 72 0 3 -15 19 -32 36 -18 17 -52 48 -75 69 -23
21 -46 39 -50 39 -5 0 -15 9 -23 20 -8 11 -19 20 -25 20 -6 0 -20 9 -32 19
-11 11 -65 40 -119 66 -55 26 -107 51 -116 56 -10 5 -25 9 -33 9 -8 0 -23 4
-33 9 -68 36 -278 51 -723 51 l-389 0 0 -94z"/>
<path d="M12424 5026 c-40 -22 -55 -39 -75 -85 -12 -25 -27 -59 -35 -75 -8
-16 -14 -33 -14 -37 0 -5 -12 -34 -26 -66 -14 -32 -30 -68 -35 -80 -22 -57
-32 -79 -40 -95 -5 -10 -9 -25 -9 -33 0 -8 -4 -15 -10 -15 -5 0 -10 -11 -10
-24 0 -14 -4 -28 -10 -31 -5 -3 -10 -17 -10 -31 0 -13 -4 -24 -8 -24 -5 0 -15
-22 -22 -50 -7 -27 -17 -50 -22 -50 -4 0 -8 -6 -8 -14 0 -13 -39 -109 -61
-148 -5 -10 -9 -22 -9 -28 0 -5 -13 -39 -30 -75 -16 -36 -30 -70 -30 -75 0
-10 -5 -23 -28 -67 -7 -13 -12 -32 -12 -43 0 -11 -4 -20 -10 -20 -5 0 -10 -7
-10 -15 0 -8 -4 -23 -9 -33 -5 -9 -13 -28 -18 -42 -6 -14 -16 -38 -23 -55 -7
-16 -16 -39 -20 -50 -4 -11 -24 -57 -44 -102 -20 -45 -36 -87 -36 -93 0 -6 -5
-20 -12 -33 -24 -47 -28 -57 -28 -72 0 -8 -4 -15 -10 -15 -5 0 -10 -11 -10
-24 0 -14 -4 -28 -10 -31 -5 -3 -10 -15 -10 -26 0 -10 -4 -19 -10 -19 -5 0
-10 -9 -10 -20 0 -11 -4 -28 -9 -38 -5 -9 -13 -28 -18 -42 -6 -14 -20 -46 -32
-73 -11 -26 -21 -52 -21 -57 0 -10 -37 -95 -71 -163 -10 -22 -19 -45 -19 -53
0 -7 -9 -29 -20 -49 -11 -20 -20 -44 -20 -55 0 -11 -4 -20 -10 -20 -5 0 -10
-11 -10 -24 0 -14 -4 -28 -10 -31 -5 -3 -10 -15 -10 -26 0 -10 -4 -19 -10 -19
-5 0 -10 -9 -10 -20 0 -11 -4 -28 -9 -38 -5 -9 -13 -28 -19 -42 -5 -14 -19
-45 -30 -70 -11 -25 -32 -76 -47 -115 -15 -38 -31 -74 -36 -79 -5 -6 -9 -20
-9 -33 0 -13 -4 -23 -10 -23 -5 0 -10 -9 -10 -20 0 -11 -9 -35 -20 -55 -11
-20 -20 -42 -20 -50 0 -9 -4 -23 -9 -33 -11 -22 -39 -88 -61 -147 -5 -11 -15
-36 -23 -55 -82 -186 -87 -173 71 -169 118 4 129 6 155 29 29 25 57 73 57 97
0 7 5 13 10 13 6 0 10 9 10 20 0 11 9 35 20 55 11 20 20 42 20 50 0 9 4 23 9
33 5 9 13 28 19 42 5 14 19 46 31 72 12 26 21 54 21 61 0 7 4 17 8 23 5 5 21
41 37 79 15 39 32 74 37 79 4 6 8 16 8 23 0 8 9 33 20 55 11 23 20 50 20 60 0
10 5 18 10 18 6 0 10 11 10 24 0 14 5 28 10 31 6 3 10 15 10 26 0 10 5 19 10
19 6 0 10 11 10 24 0 14 5 28 10 31 6 3 10 15 10 26 0 10 5 19 10 19 6 0 10 9
10 20 0 11 4 28 9 38 5 9 13 28 19 42 5 14 26 62 46 107 20 45 36 87 36 93 0
6 4 18 9 28 39 77 51 106 51 123 0 10 5 19 10 19 6 0 10 9 10 19 0 11 5 23 10
26 6 3 10 17 10 31 0 13 5 24 10 24 6 0 10 11 10 24 0 14 5 28 10 31 6 3 10
15 10 26 0 10 5 19 10 19 6 0 10 6 10 14 0 12 44 125 97 246 8 19 20 46 25 60
6 14 14 33 19 42 5 10 9 27 9 38 0 11 5 20 10 20 6 0 10 11 10 24 0 14 5 28
10 31 6 3 10 15 10 26 0 10 5 19 10 19 6 0 10 9 10 20 0 11 4 28 9 38 5 9 13
28 19 42 5 14 20 47 32 74 12 27 30 72 41 100 25 63 48 115 60 138 5 10 9 23
9 28 0 6 9 30 20 52 11 23 20 50 20 60 0 10 5 18 10 18 6 0 10 11 10 25 0 14
5 25 10 25 6 0 10 11 10 25 0 14 4 25 8 25 5 0 15 23 22 50 7 28 17 50 22 50
4 0 8 9 8 19 0 11 4 22 10 26 10 6 40 -45 40 -70 0 -8 5 -15 10 -15 6 0 10 -9
10 -20 0 -11 5 -20 10 -20 6 0 10 -7 10 -15 0 -8 5 -24 10 -35 6 -11 15 -29
20 -40 6 -11 10 -29 10 -40 0 -11 5 -20 10 -20 6 0 10 -6 10 -14 0 -8 10 -34
21 -58 12 -23 25 -52 29 -63 11 -31 26 -65 55 -130 15 -33 36 -80 47 -105 11
-25 24 -53 29 -62 5 -10 9 -25 9 -33 0 -8 5 -15 10 -15 6 0 10 -9 10 -19 0
-11 5 -23 10 -26 6 -3 10 -17 10 -31 0 -13 5 -24 10 -24 6 0 10 -9 10 -20 0
-11 5 -20 10 -20 6 0 10 -11 10 -25 0 -14 5 -25 10 -25 6 0 10 -8 10 -18 0
-10 4 -22 8 -27 5 -6 15 -26 22 -45 7 -19 23 -57 35 -85 68 -146 85 -187 85
-200 0 -8 5 -15 10 -15 6 0 10 -7 10 -15 0 -8 5 -25 12 -38 24 -47 28 -57 28
-72 0 -8 5 -15 10 -15 6 0 10 -10 10 -23 0 -13 4 -27 9 -33 5 -5 12 -19 16
-31 l6 -23 -385 0 c-251 0 -386 -4 -386 -10 0 -5 -5 -10 -11 -10 -6 0 -16 -6
-22 -13 -30 -31 -38 -64 -35 -152 l3 -90 624 -3 c356 -1 629 2 634 7 5 5 4 17
-2 30 -6 11 -15 30 -21 41 -5 11 -10 27 -10 35 0 8 -4 15 -10 15 -5 0 -10 7
-10 15 0 8 -4 23 -9 33 -43 87 -81 175 -81 187 0 8 -4 15 -10 15 -5 0 -10 7
-10 15 0 8 -4 24 -10 35 -6 11 -15 29 -20 40 -6 11 -10 29 -10 40 0 11 -4 20
-10 20 -5 0 -10 6 -10 14 0 8 -9 31 -19 53 -25 49 -61 131 -61 138 0 2 -13 33
-29 67 -15 35 -40 89 -55 121 -14 32 -26 64 -26 72 0 8 -4 15 -10 15 -5 0 -10
9 -10 19 0 11 -4 23 -10 26 -5 3 -10 15 -10 26 0 10 -4 19 -10 19 -5 0 -10 11
-10 25 0 14 -4 25 -10 25 -5 0 -10 11 -10 25 0 14 -4 25 -10 25 -5 0 -10 6
-10 13 0 8 -13 41 -30 75 -16 34 -30 65 -30 67 0 3 -11 28 -25 57 -14 28 -25
58 -25 65 0 7 -4 13 -8 13 -5 0 -15 23 -22 50 -7 28 -17 50 -22 50 -4 0 -8 9
-8 20 0 11 -4 20 -10 20 -5 0 -10 9 -10 20 0 11 -9 35 -20 55 -11 20 -20 44
-20 55 0 11 -4 20 -10 20 -5 0 -10 6 -10 14 0 8 -9 31 -19 53 -49 99 -91 195
-91 209 0 7 -4 14 -10 14 -5 0 -10 7 -10 15 0 8 -4 23 -9 33 -5 9 -16 33 -25
53 -15 35 -33 54 -73 77 -29 15 -190 14 -219 -2z"/>
<path d="M13980 5024 c-42 -23 -60 -38 -60 -51 0 -7 -4 -13 -10 -13 -6 0 -10
-42 -10 -105 l0 -105 982 0 c1089 0 1049 -2 1086 66 15 29 26 144 18 188 l-7
36 -987 -1 c-814 -1 -991 -3 -1012 -15z"/>
<path d="M17236 5027 c-34 -20 -66 -55 -66 -71 0 -8 -4 -18 -10 -21 -5 -3 -10
-15 -10 -26 0 -10 -4 -19 -10 -19 -5 0 -10 -9 -10 -19 0 -11 -9 -36 -19 -58
-26 -52 -71 -153 -71 -158 0 -3 -13 -33 -30 -67 -16 -34 -30 -67 -30 -75 0 -7
-4 -13 -10 -13 -5 0 -10 -11 -10 -25 0 -14 -4 -25 -10 -25 -5 0 -10 -7 -10
-15 0 -8 -4 -24 -10 -35 -5 -11 -14 -29 -20 -40 -5 -11 -10 -27 -10 -35 0 -8
-4 -15 -10 -15 -5 0 -10 -7 -10 -15 0 -8 -4 -23 -9 -33 -5 -9 -13 -28 -19 -42
-5 -14 -19 -45 -30 -70 -25 -56 -59 -134 -79 -180 -8 -19 -23 -52 -34 -73 -10
-22 -19 -45 -19 -53 0 -8 -4 -14 -10 -14 -5 0 -10 -11 -10 -24 0 -14 -4 -28
-10 -31 -5 -3 -10 -15 -10 -26 0 -10 -4 -19 -10 -19 -5 0 -10 -11 -10 -25 0
-14 -4 -25 -10 -25 -5 0 -10 -6 -10 -13 0 -8 -13 -41 -30 -75 -16 -34 -30 -64
-30 -67 0 -2 -12 -30 -26 -62 -15 -32 -33 -74 -41 -93 -8 -19 -21 -48 -29 -64
-8 -16 -14 -35 -14 -43 0 -7 -4 -13 -10 -13 -5 0 -10 -11 -10 -25 0 -14 -4
-25 -10 -25 -5 0 -10 -11 -10 -25 0 -14 -4 -25 -10 -25 -5 0 -10 -9 -10 -19 0
-11 -4 -23 -10 -26 -5 -3 -10 -15 -10 -26 0 -10 -4 -19 -10 -19 -5 0 -10 -6
-10 -14 0 -13 -31 -88 -71 -170 -10 -22 -19 -45 -19 -52 0 -7 -6 -15 -12 -17
-10 -4 -9 -8 2 -16 19 -13 1238 -15 1259 -2 11 7 13 28 8 105 -6 93 -8 97 -41
131 l-35 35 -381 0 c-371 0 -380 0 -380 20 0 11 9 35 20 55 11 20 20 44 20 55
0 11 5 20 10 20 6 0 10 6 10 13 0 8 15 45 33 83 18 38 39 85 47 104 7 19 17
39 22 45 4 5 8 17 8 27 0 10 5 18 10 18 6 0 10 7 10 15 0 9 9 35 20 57 11 23
20 48 20 55 0 7 5 13 10 13 6 0 10 11 10 25 0 14 5 25 10 25 6 0 10 11 10 25
0 14 5 25 10 25 6 0 10 9 10 19 0 11 5 23 10 26 6 3 10 15 10 26 0 10 5 19 10
19 6 0 10 6 10 14 0 13 26 74 87 206 25 54 36 81 56 130 5 14 13 33 18 42 5
10 9 25 9 33 0 8 5 15 10 15 6 0 10 9 10 20 0 11 5 20 10 20 6 0 10 9 10 20 0
11 4 28 9 38 9 17 37 80 64 142 8 19 26 59 40 88 l24 53 16 -25 c10 -14 17
-34 17 -46 0 -11 5 -20 10 -20 6 0 10 -9 10 -19 0 -11 5 -23 10 -26 6 -3 10
-17 10 -31 0 -13 5 -24 10 -24 6 0 10 -8 10 -18 0 -10 9 -37 20 -60 11 -22 20
-45 20 -50 0 -4 10 -28 22 -53 30 -61 88 -211 88 -226 0 -7 5 -13 10 -13 6 0
10 -7 10 -15 0 -8 5 -24 10 -35 6 -11 15 -29 20 -40 6 -11 10 -29 10 -40 0
-11 5 -20 10 -20 6 0 10 -9 10 -19 0 -11 5 -23 10 -26 6 -3 10 -14 10 -25 0
-16 12 -45 51 -122 5 -10 9 -22 9 -28 0 -6 16 -48 36 -93 34 -78 42 -97 63
-149 14 -38 33 -82 42 -100 5 -10 9 -27 9 -38 0 -11 5 -20 10 -20 6 0 10 -11
10 -25 0 -14 5 -25 10 -25 6 0 10 -9 10 -19 0 -11 5 -23 10 -26 6 -3 10 -14
10 -24 0 -9 11 -41 25 -69 14 -29 25 -55 25 -58 0 -3 19 -49 41 -102 40 -93
48 -114 68 -164 14 -38 33 -82 42 -100 5 -10 9 -27 9 -38 0 -11 5 -20 10 -20
6 0 10 -9 10 -19 0 -11 5 -23 10 -26 6 -3 10 -17 10 -31 0 -13 5 -24 10 -24 6
0 10 -7 10 -15 0 -8 4 -23 9 -33 8 -15 27 -60 50 -117 5 -11 19 -45 31 -75 30
-73 41 -101 50 -125 11 -30 31 -78 41 -97 5 -10 9 -27 9 -38 0 -11 5 -20 10
-20 6 0 10 -7 10 -15 0 -8 4 -23 9 -33 16 -30 41 -90 41 -98 0 -23 82 -171
102 -184 16 -10 61 -16 152 -18 l128 -4 -7 33 c-4 18 -11 40 -15 49 -15 28
-50 109 -76 177 -15 38 -31 72 -35 77 -5 6 -9 20 -9 33 0 13 -4 23 -10 23 -5
0 -10 9 -10 19 0 11 -4 23 -10 26 -5 3 -10 15 -10 26 0 10 -4 28 -10 39 -5 11
-14 29 -20 40 -5 11 -10 27 -10 35 0 8 -4 15 -10 15 -5 0 -10 8 -10 18 0 10
-9 37 -20 60 -11 22 -20 47 -20 55 0 7 -4 17 -8 23 -5 5 -21 41 -37 79 -15 39
-31 75 -35 80 -4 6 -13 31 -21 58 -7 26 -17 47 -21 47 -4 0 -8 7 -8 15 0 8 -5
25 -12 38 -24 46 -28 57 -28 72 0 8 -9 30 -20 50 -11 20 -20 44 -20 53 0 10
-4 22 -9 28 -4 5 -25 51 -45 102 -20 51 -46 114 -57 140 -12 26 -26 58 -31 72
-6 14 -14 33 -19 42 -5 10 -9 27 -9 38 0 11 -4 20 -10 20 -5 0 -10 9 -10 19 0
11 -4 23 -10 26 -5 3 -10 17 -10 31 0 13 -4 24 -10 24 -5 0 -10 9 -10 20 0 11
-9 35 -20 55 -11 20 -20 42 -20 50 0 9 -4 23 -10 33 -18 32 -80 173 -80 182 0
5 -10 31 -21 57 -12 27 -26 59 -32 73 -5 14 -13 33 -18 42 -5 10 -9 27 -9 38
0 11 -4 20 -10 20 -5 0 -10 9 -10 19 0 11 -4 23 -10 26 -5 3 -10 17 -10 31 0
13 -4 24 -10 24 -5 0 -10 9 -10 19 0 11 -4 23 -10 26 -5 3 -10 17 -10 31 0 13
-3 24 -8 24 -4 0 -13 18 -19 40 -7 21 -25 65 -39 97 -14 32 -30 68 -35 81 -42
105 -51 126 -60 144 -5 10 -9 27 -9 38 0 11 -4 20 -10 20 -5 0 -10 7 -10 15 0
8 -4 23 -9 33 -8 16 -17 36 -40 95 -5 12 -18 43 -30 69 -12 26 -21 53 -22 60
-1 23 -64 132 -79 138 -8 4 -25 12 -37 18 -30 16 -192 14 -217 -1z"/>
<path d="M14896 4143 c-33 -5 -72 -40 -86 -78 -13 -33 -13 -2404 -1 -2424 7
-11 30 -13 104 -9 88 5 97 7 125 34 16 16 35 44 41 63 8 24 11 370 11 1221 l0
1188 -22 6 c-25 6 -125 6 -172 -1z"/>
<path d="M3445 642 c-22 -1 -49 -7 -60 -11 -11 -5 -35 -15 -52 -23 -18 -7 -33
-16 -33 -20 0 -5 -5 -8 -10 -8 -18 0 -74 -63 -99 -112 -19 -39 -24 -63 -24
-132 -1 -47 4 -96 11 -110 7 -14 18 -38 25 -53 16 -37 85 -105 122 -122 17 -7
39 -18 49 -23 27 -14 205 -13 219 1 6 6 21 11 34 11 13 0 23 5 23 10 0 6 7 10
16 10 19 0 44 24 44 42 0 28 -52 53 -62 30 -8 -20 -101 -52 -149 -52 -84 0
-128 18 -189 80 -47 46 -57 64 -68 113 -19 83 6 176 63 232 26 26 75 55 93 55
12 0 24 5 27 10 3 6 35 10 70 10 35 0 67 -4 70 -10 3 -5 17 -10 31 -10 13 0
24 -4 24 -10 0 -5 7 -10 15 -10 8 0 15 -4 15 -10 0 -14 33 -13 48 2 21 21 13
45 -18 58 -16 7 -30 15 -30 19 0 18 -131 39 -205 33z"/>
<path d="M14025 638 c-70 -9 -105 -19 -105 -29 0 -5 -7 -9 -16 -9 -9 0 -36
-21 -61 -47 -128 -136 -123 -326 11 -457 39 -38 70 -56 94 -56 10 0 23 -5 29
-11 7 -7 49 -11 103 -11 76 0 99 4 138 23 46 23 82 54 82 70 0 29 -53 43 -70
18 -3 -4 -22 -16 -43 -28 -40 -22 -150 -30 -185 -12 -9 5 -30 15 -47 22 -38
18 -69 48 -97 96 -19 31 -23 53 -23 123 0 71 4 91 24 125 25 43 69 85 89 85 6
0 12 3 12 8 0 12 76 32 121 32 52 0 113 -18 136 -40 28 -26 51 -31 68 -14 19
20 19 27 -2 50 -48 52 -150 77 -258 62z"/>
<path d="M4090 330 l0 -310 215 0 215 0 0 30 0 30 -175 0 -175 0 0 280 0 280
-40 0 -40 0 0 -310z"/>
<path d="M4840 454 c0 -194 7 -249 43 -324 27 -56 31 -59 89 -89 39 -20 62
-24 132 -24 79 1 146 17 146 35 0 5 5 8 10 8 17 0 54 42 75 85 18 36 20 65 23
268 l3 227 -35 0 -36 0 0 -192 c0 -187 -2 -205 -36 -299 -3 -8 -24 -27 -47
-42 -33 -22 -53 -27 -103 -27 -35 0 -66 5 -69 10 -3 5 -14 10 -24 10 -23 0
-71 54 -71 79 0 11 -4 23 -10 26 -6 4 -10 88 -10 221 l0 214 -40 0 -40 0 0
-186z"/>
<path d="M5790 330 l0 -310 199 0 c123 0 202 4 206 10 3 6 15 10 26 10 10 0
19 5 19 10 0 6 5 10 11 10 28 0 69 74 69 125 0 58 -57 145 -95 145 -21 0 -19
6 13 40 62 65 61 161 -2 217 -51 46 -87 53 -274 53 l-172 0 0 -310z m347 238
c76 -34 97 -113 43 -166 -26 -26 -40 -31 -102 -37 -40 -4 -102 -5 -138 -3
l-65 3 -3 108 -3 107 120 0 c73 0 131 -5 148 -12z m74 -294 c29 -29 37 -105
16 -138 -31 -46 -68 -56 -219 -56 l-138 0 0 111 0 111 160 -3 c147 -4 161 -6
181 -25z"/>
<path d="M6705 628 c-3 -7 -4 -146 -3 -308 l3 -295 223 -3 222 -2 0 30 0 30
-185 0 -185 0 0 110 0 110 148 0 c81 0 153 4 160 9 8 4 12 19 10 32 l-3 24
-157 3 -158 3 0 104 0 105 178 2 177 3 0 25 0 25 -213 3 c-165 2 -214 0 -217
-10z"/>
<path d="M8015 627 c-3 -7 -4 -145 -3 -307 l3 -295 40 0 40 0 3 92 3 93 102 0
102 0 38 -54 c20 -30 37 -57 37 -60 0 -3 15 -21 32 -41 25 -26 41 -35 65 -35
40 0 41 8 8 46 -14 16 -25 35 -25 42 0 6 -4 12 -8 12 -5 0 -15 12 -23 28 -8
15 -22 36 -31 46 -10 11 -18 22 -18 26 0 3 20 23 45 43 25 21 52 52 61 68 18
35 21 166 4 183 -5 5 -10 16 -10 23 0 18 -38 55 -70 69 -68 31 -89 34 -236 34
-115 0 -156 -3 -159 -13z m302 -59 c27 -7 62 -25 78 -40 28 -26 30 -32 30
-100 -1 -57 -5 -78 -20 -95 -11 -13 -25 -23 -31 -23 -7 0 -14 -5 -16 -11 -2
-7 -52 -13 -131 -16 l-127 -6 0 152 0 151 85 0 c47 0 106 -6 132 -12z"/>
<path d="M8900 330 l0 -310 223 2 222 3 0 25 0 25 -182 3 -183 2 0 110 0 109
153 3 152 3 3 33 3 32 -155 0 -156 0 0 105 0 105 178 2 177 3 3 28 3 27 -220
0 -221 0 0 -310z"/>
<path d="M9815 630 c-3 -5 -13 -10 -21 -10 -20 0 -71 -48 -89 -83 -17 -34 -20
-117 -5 -117 6 0 10 -7 10 -15 0 -17 35 -55 50 -55 6 0 10 -4 10 -10 0 -5 9
-10 19 -10 11 0 23 -4 26 -10 3 -5 21 -10 40 -10 19 0 37 -4 40 -10 3 -5 21
-10 40 -10 19 0 37 -4 40 -10 3 -5 13 -10 22 -10 9 0 29 -13 44 -30 48 -50 34
-111 -33 -144 -35 -18 -173 -22 -183 -6 -3 6 -17 10 -31 10 -13 0 -24 5 -24
10 0 6 -9 10 -20 10 -11 0 -20 5 -20 10 0 20 -38 10 -43 -12 -7 -24 17 -58 40
-58 7 0 13 -4 13 -8 0 -28 257 -49 283 -23 6 6 17 11 24 11 27 0 81 61 93 105
10 34 10 51 0 81 -13 38 -51 84 -70 84 -5 0 -10 5 -10 10 0 6 -11 10 -24 10
-14 0 -27 4 -30 9 -3 5 -20 11 -38 14 -92 15 -147 36 -179 68 -38 38 -13 139
34 139 9 0 19 5 22 10 3 6 37 10 75 10 38 0 72 -4 75 -10 3 -5 19 -10 36 -10
16 0 29 -4 29 -10 0 -5 11 -10 25 -10 21 0 25 5 25 28 0 21 -7 32 -27 41 -16
8 -36 17 -45 22 -24 12 -215 11 -223 -1z"/>
<path d="M10520 330 l0 -310 40 0 40 0 0 310 0 310 -40 0 -40 0 0 -310z"/>
<path d="M11040 330 l0 -310 169 0 c103 0 172 4 176 10 3 5 14 10 25 10 23 0
99 39 125 65 95 95 119 238 61 365 -20 45 -69 98 -111 122 -74 41 -116 48
-282 48 l-163 0 0 -310z m373 221 c52 -24 99 -68 122 -114 17 -34 21 -182 5
-192 -5 -3 -10 -15 -10 -25 0 -27 -85 -107 -128 -121 -20 -6 -94 -14 -164 -16
l-128 -5 0 252 0 252 128 -4 c104 -4 136 -8 175 -27z"/>
<path d="M12000 330 l0 -310 230 0 230 0 0 30 0 30 -185 0 -185 0 0 110 0 109
153 3 152 3 3 33 3 32 -155 0 -156 0 0 105 0 105 175 0 175 0 0 30 0 30 -220
0 -220 0 0 -310z"/>
<path d="M12840 330 l0 -310 40 0 40 0 0 235 c0 129 3 235 6 235 8 0 34 -27
34 -35 0 -4 6 -12 13 -19 6 -7 26 -30 42 -52 17 -21 39 -47 50 -58 11 -12 31
-37 45 -56 13 -19 27 -37 30 -40 3 -3 25 -32 50 -65 25 -33 50 -65 55 -71 6
-6 21 -25 35 -42 19 -24 33 -32 58 -32 l32 0 0 310 0 310 -40 0 -40 0 -2 -242
-3 -242 -29 45 c-16 24 -42 57 -58 74 -15 16 -28 34 -28 38 0 4 -15 23 -32 41
-18 19 -55 64 -83 100 -27 37 -61 80 -75 96 -48 54 -60 70 -60 80 0 6 -18 10
-40 10 l-40 0 0 -310z"/>
<path d="M14685 627 c-3 -7 -4 -145 -3 -307 l3 -295 223 -3 222 -2 0 30 0 30
-185 0 -185 0 0 110 0 110 148 0 c81 0 153 4 160 9 8 4 12 19 10 32 l-3 24
-157 3 -158 3 0 104 0 105 178 2 177 3 3 28 3 27 -216 0 c-164 0 -217 -3 -220
-13z"/>
</g>
</svg>
